<svg xmlns="http://www.w3.org/2000/svg" xmlns:xlink="http://www.w3.org/1999/xlink" width="2000" zoomAndPan="magnify" viewBox="0 0 1500 599.999999" height="800" preserveAspectRatio="xMidYMid meet" version="1.0"><defs><g/><clipPath id="52c6355ca0"><path d="M 1235.015625 173.46875 L 1440 173.46875 L 1440 378.453125 L 1235.015625 378.453125 Z M 1235.015625 173.46875 " clip-rule="nonzero"/></clipPath><clipPath id="4e15efbdb7"><path d="M 1337.507812 173.46875 C 1280.902344 173.46875 1235.015625 219.355469 1235.015625 275.960938 C 1235.015625 332.566406 1280.902344 378.453125 1337.507812 378.453125 C 1394.113281 378.453125 1440 332.566406 1440 275.960938 C 1440 219.355469 1394.113281 173.46875 1337.507812 173.46875 Z M 1337.507812 173.46875 " clip-rule="nonzero"/></clipPath><clipPath id="c672f192a8"><path d="M 0.015625 0.46875 L 205 0.46875 L 205 205.453125 L 0.015625 205.453125 Z M 0.015625 0.46875 " clip-rule="nonzero"/></clipPath><clipPath id="ae6a98b301"><path d="M 102.507812 0.46875 C 45.902344 0.46875 0.015625 46.355469 0.015625 102.960938 C 0.015625 159.566406 45.902344 205.453125 102.507812 205.453125 C 159.113281 205.453125 205 159.566406 205 102.960938 C 205 46.355469 159.113281 0.46875 102.507812 0.46875 Z M 102.507812 0.46875 " clip-rule="nonzero"/></clipPath><clipPath id="be1a024f76"><rect x="0" width="205" y="0" height="206"/></clipPath></defs><g clip-path="url(#52c6355ca0)"><g clip-path="url(#4e15efbdb7)"><g transform="matrix(1, 0, 0, 1, 1235, 173)"><g clip-path="url(#be1a024f76)"><g clip-path="url(#c672f192a8)"><g clip-path="url(#ae6a98b301)"><path fill="#004aad" d="M 0.015625 0.46875 L 205 0.46875 L 205 205.453125 L 0.015625 205.453125 Z M 0.015625 0.46875 " fill-opacity="1" fill-rule="nonzero"/></g></g></g></g></g></g><g fill="#ffffff" fill-opacity="1"><g transform="translate(1253.202829, 330.622271)"><g><path d="M 0.578125 0 L 45.4375 -103.046875 L 77.5625 -103.046875 L 121.859375 0 L 93.78125 0 L 85.53125 -20.265625 L 36.765625 -20.265625 L 28.515625 0 Z M 42.265625 -37.765625 L 80.03125 -37.765625 L 61.5 -83.796875 L 61.21875 -83.796875 Z M 42.265625 -37.765625 "/></g></g></g><g fill="#ffffff" fill-opacity="1"><g transform="translate(1379.683889, 330.622271)"><g><path d="M 7.671875 0 L 7.671875 -103.046875 L 34.4375 -103.046875 L 34.4375 0 Z M 7.671875 0 "/></g></g></g><g fill="#000000" fill-opacity="1"><g transform="translate(59.999998, 328.920124)"><g><path d="M 8.046875 0 L 8.046875 -103.171875 L 68.921875 -103.171875 C 79.066406 -103.171875 87.09375 -100.679688 93 -95.703125 C 98.90625 -90.734375 101.859375 -83.953125 101.859375 -75.359375 C 101.859375 -69.992188 100.367188 -65.335938 97.390625 -61.390625 C 94.410156 -57.441406 90.4375 -54.785156 85.46875 -53.421875 L 85.46875 -53.265625 C 91.507812 -51.992188 96.257812 -49.164062 99.71875 -44.78125 C 103.1875 -40.394531 104.921875 -35.078125 104.921875 -28.828125 C 104.921875 -20.046875 101.675781 -13.046875 95.1875 -7.828125 C 88.707031 -2.609375 79.953125 0 68.921875 0 Z M 20.203125 -58.53125 L 67.609375 -58.53125 C 74.441406 -58.53125 79.832031 -60.039062 83.78125 -63.0625 C 87.726562 -66.09375 89.703125 -70.242188 89.703125 -75.515625 C 89.703125 -80.785156 87.726562 -84.929688 83.78125 -87.953125 C 79.832031 -90.972656 74.441406 -92.484375 67.609375 -92.484375 L 20.203125 -92.484375 Z M 20.203125 -10.6875 L 67.3125 -10.6875 C 75.125 -10.6875 81.320312 -12.367188 85.90625 -15.734375 C 90.488281 -19.097656 92.78125 -23.707031 92.78125 -29.5625 C 92.78125 -35.21875 90.488281 -39.703125 85.90625 -43.015625 C 81.320312 -46.335938 75.125 -48 67.3125 -48 L 20.203125 -48 Z M 20.203125 -10.6875 "/></g></g></g><g fill="#000000" fill-opacity="1"><g transform="translate(165.944211, 328.920124)"><g><path d="M 8.046875 0 L 8.046875 -103.171875 L 93.21875 -103.171875 L 93.21875 -92.34375 L 19.90625 -92.34375 L 19.90625 -58.53125 L 87.375 -58.53125 L 87.375 -48 L 19.90625 -48 L 19.90625 -10.828125 L 94.6875 -10.828125 L 94.6875 0 Z M 8.046875 0 "/></g></g></g><g fill="#000000" fill-opacity="1"><g transform="translate(261.352514, 328.920124)"><g><path d="M 56.78125 3.65625 C 47.707031 3.65625 39.414062 2.171875 31.90625 -0.796875 C 24.394531 -3.773438 18.125 -7.847656 13.09375 -13.015625 C 8.070312 -18.191406 4.679688 -24.144531 2.921875 -30.875 L 14.046875 -35.421875 C 15.117188 -29.953125 17.679688 -25.070312 21.734375 -20.78125 C 25.785156 -16.488281 30.859375 -13.144531 36.953125 -10.75 C 43.046875 -8.363281 49.753906 -7.171875 57.078125 -7.171875 C 63.515625 -7.171875 69.070312 -8.046875 73.75 -9.796875 C 78.4375 -11.554688 82.070312 -13.945312 84.65625 -16.96875 C 87.238281 -20 88.53125 -23.414062 88.53125 -27.21875 C 88.53125 -31.800781 86.484375 -35.53125 82.390625 -38.40625 C 78.296875 -41.289062 71.613281 -43.5625 62.34375 -45.21875 L 40.53125 -49.3125 C 29.894531 -51.269531 22.085938 -54.367188 17.109375 -58.609375 C 12.140625 -62.859375 9.65625 -68.539062 9.65625 -75.65625 C 9.65625 -81.90625 11.363281 -87.367188 14.78125 -92.046875 C 18.195312 -96.734375 22.925781 -100.367188 28.96875 -102.953125 C 35.019531 -105.535156 41.945312 -106.828125 49.75 -106.828125 C 56.875 -106.828125 63.382812 -105.703125 69.28125 -103.453125 C 75.1875 -101.210938 80.210938 -98.117188 84.359375 -94.171875 C 88.515625 -90.222656 91.46875 -85.613281 93.21875 -80.34375 L 82.828125 -75.359375 C 80.878906 -81.410156 76.925781 -86.363281 70.96875 -90.21875 C 65.019531 -94.070312 58 -96 49.90625 -96 C 41.613281 -96 34.878906 -94.21875 29.703125 -90.65625 C 24.535156 -87.09375 21.953125 -82.582031 21.953125 -77.125 C 21.953125 -72.832031 23.660156 -69.390625 27.078125 -66.796875 C 30.492188 -64.210938 36.003906 -62.238281 43.609375 -60.875 L 65.125 -56.921875 C 77.320312 -54.773438 86.296875 -51.382812 92.046875 -46.75 C 97.804688 -42.125 100.6875 -36.101562 100.6875 -28.6875 C 100.6875 -22.34375 98.851562 -16.726562 95.1875 -11.84375 C 91.53125 -6.96875 86.410156 -3.164062 79.828125 -0.4375 C 73.242188 2.289062 65.5625 3.65625 56.78125 3.65625 Z M 56.78125 3.65625 "/></g></g></g><g fill="#000000" fill-opacity="1"><g transform="translate(362.321442, 328.920124)"><g><path d="M 43.03125 0 L 43.03125 -92.34375 L 1.171875 -92.34375 L 1.171875 -103.171875 L 97.03125 -103.171875 L 97.03125 -92.34375 L 55.171875 -92.34375 L 55.171875 0 Z M 43.03125 0 "/></g></g></g><g fill="#000000" fill-opacity="1"><g transform="translate(457.734356, 328.920124)"><g><path d="M 102.4375 2.78125 C 96.488281 2.78125 91.660156 1.222656 87.953125 -1.890625 C 84.242188 -5.015625 81.414062 -8.820312 79.46875 -13.3125 L 73.609375 -27.65625 C 72.242188 -30.976562 70.289062 -33.613281 67.75 -35.5625 C 65.21875 -37.507812 62.289062 -38.484375 58.96875 -38.484375 L 34.96875 -38.484375 L 34.96875 0 L 7.75 0 L 7.75 -104.203125 L 75.515625 -104.203125 C 88.191406 -104.203125 98.164062 -101.347656 105.4375 -95.640625 C 112.707031 -89.929688 116.34375 -82.097656 116.34375 -72.140625 C 116.34375 -64.734375 113.898438 -58.46875 109.015625 -53.34375 C 104.140625 -48.21875 97.363281 -44.828125 88.6875 -43.171875 L 88.6875 -43.03125 C 91.125 -42.050781 93.144531 -40.582031 94.75 -38.625 C 96.363281 -36.675781 97.707031 -34.382812 98.78125 -31.75 L 104.046875 -19.3125 C 104.828125 -17.75 105.753906 -16.429688 106.828125 -15.359375 C 107.898438 -14.285156 109.363281 -13.75 111.21875 -13.75 C 112.582031 -13.75 113.972656 -14.140625 115.390625 -14.921875 C 116.804688 -15.703125 118.003906 -16.726562 118.984375 -18 L 124.6875 -5.859375 C 122.144531 -3.316406 118.875 -1.242188 114.875 0.359375 C 110.875 1.972656 106.726562 2.78125 102.4375 2.78125 Z M 34.96875 -55.90625 L 69.8125 -55.90625 C 75.757812 -55.90625 80.460938 -57.242188 83.921875 -59.921875 C 87.390625 -62.609375 89.125 -66.195312 89.125 -70.6875 C 89.125 -75.269531 87.390625 -78.925781 83.921875 -81.65625 C 80.460938 -84.382812 75.757812 -85.75 69.8125 -85.75 L 34.96875 -85.75 Z M 34.96875 -55.90625 "/></g></g></g><g fill="#000000" fill-opacity="1"><g transform="translate(580.214091, 328.920124)"><g><path d="M 7.75 0 L 7.75 -104.203125 L 97.75 -104.203125 L 97.75 -84.59375 L 34.09375 -84.59375 L 34.09375 -62.046875 L 91.90625 -62.046875 L 91.90625 -44.640625 L 34.09375 -44.640625 L 34.09375 -19.609375 L 99.21875 -19.609375 L 99.21875 0 Z M 7.75 0 "/></g></g></g><g fill="#000000" fill-opacity="1"><g transform="translate(680.012346, 328.920124)"><g><path d="M 59.265625 3.515625 C 50.484375 3.515625 42.265625 2.34375 34.609375 0 C 26.953125 -2.34375 20.390625 -5.679688 14.921875 -10.015625 C 9.460938 -14.359375 5.515625 -19.554688 3.078125 -25.609375 L 20.484375 -36.4375 C 22.441406 -32.34375 25.421875 -28.734375 29.421875 -25.609375 C 33.421875 -22.484375 38.125 -20.039062 43.53125 -18.28125 C 48.945312 -16.53125 54.632812 -15.65625 60.59375 -15.65625 C 68.101562 -15.65625 74.050781 -16.898438 78.4375 -19.390625 C 82.832031 -21.878906 85.03125 -25.070312 85.03125 -28.96875 C 85.03125 -32.09375 83.320312 -34.65625 79.90625 -36.65625 C 76.488281 -38.65625 71.023438 -40.242188 63.515625 -41.421875 L 45.21875 -44.34375 C 31.945312 -46.289062 22.285156 -49.628906 16.234375 -54.359375 C 10.191406 -59.097656 7.171875 -65.660156 7.171875 -74.046875 C 7.171875 -81.078125 9.265625 -87.101562 13.453125 -92.125 C 17.648438 -97.144531 23.457031 -100.992188 30.875 -103.671875 C 38.289062 -106.359375 46.828125 -107.703125 56.484375 -107.703125 C 63.804688 -107.703125 70.632812 -106.726562 76.96875 -104.78125 C 83.3125 -102.832031 88.847656 -100.125 93.578125 -96.65625 C 98.316406 -93.195312 101.804688 -89.078125 104.046875 -84.296875 L 87.8125 -73.3125 C 85.070312 -78.09375 80.847656 -81.898438 75.140625 -84.734375 C 69.441406 -87.566406 63.175781 -88.984375 56.34375 -88.984375 C 49.707031 -88.984375 44.289062 -87.785156 40.09375 -85.390625 C 35.90625 -83.003906 33.8125 -79.957031 33.8125 -76.25 C 33.707031 -73.320312 35.117188 -70.976562 38.046875 -69.21875 C 40.972656 -67.46875 45.707031 -66.101562 52.25 -65.125 L 70.53125 -62.34375 C 84.78125 -60.394531 95.171875 -56.929688 101.703125 -51.953125 C 108.242188 -46.972656 111.515625 -40.144531 111.515625 -31.46875 C 111.515625 -24.34375 109.316406 -18.171875 104.921875 -12.953125 C 100.535156 -7.734375 94.4375 -3.679688 86.625 -0.796875 C 78.820312 2.078125 69.703125 3.515625 59.265625 3.515625 Z M 59.265625 3.515625 "/></g></g></g><g fill="#000000" fill-opacity="1"><g transform="translate(791.370862, 328.920124)"><g><path d="M 61.75 3.359375 C 50.34375 3.359375 40.488281 1.507812 32.1875 -2.1875 C 23.894531 -5.894531 17.53125 -11.285156 13.09375 -18.359375 C 8.65625 -25.429688 6.4375 -33.945312 6.4375 -43.90625 L 6.4375 -104.203125 L 33.65625 -104.203125 L 33.65625 -44.921875 C 33.65625 -36.628906 36.191406 -30.140625 41.265625 -25.453125 C 46.335938 -20.773438 53.164062 -18.4375 61.75 -18.4375 C 70.34375 -18.4375 77.148438 -20.726562 82.171875 -25.3125 C 87.191406 -29.90625 89.703125 -36.441406 89.703125 -44.921875 L 89.703125 -104.203125 L 116.921875 -104.203125 L 116.921875 -43.90625 C 116.921875 -33.945312 114.703125 -25.429688 110.265625 -18.359375 C 105.828125 -11.285156 99.484375 -5.894531 91.234375 -2.1875 C 82.992188 1.507812 73.164062 3.359375 61.75 3.359375 Z M 61.75 3.359375 "/></g></g></g><g fill="#000000" fill-opacity="1"><g transform="translate(912.094627, 328.920124)"><g><path d="M 7.75 0 L 7.75 -104.203125 L 34.96875 -104.203125 L 34.96875 -21.8125 L 89.125 -21.8125 L 89.125 0 Z M 7.75 0 "/></g></g></g><g fill="#000000" fill-opacity="1"><g transform="translate(1000.625294, 328.920124)"><g><path d="M 39.078125 0 L 39.078125 -82.828125 L 1.609375 -82.828125 L 1.609375 -104.203125 L 103.75 -104.203125 L 103.75 -82.828125 L 66.296875 -82.828125 L 66.296875 0 Z M 39.078125 0 "/></g></g></g><g fill="#000000" fill-opacity="1"><g transform="translate(1103.350204, 328.920124)"><g><path d="M 59.265625 3.515625 C 50.484375 3.515625 42.265625 2.34375 34.609375 0 C 26.953125 -2.34375 20.390625 -5.679688 14.921875 -10.015625 C 9.460938 -14.359375 5.515625 -19.554688 3.078125 -25.609375 L 20.484375 -36.4375 C 22.441406 -32.34375 25.421875 -28.734375 29.421875 -25.609375 C 33.421875 -22.484375 38.125 -20.039062 43.53125 -18.28125 C 48.945312 -16.53125 54.632812 -15.65625 60.59375 -15.65625 C 68.101562 -15.65625 74.050781 -16.898438 78.4375 -19.390625 C 82.832031 -21.878906 85.03125 -25.070312 85.03125 -28.96875 C 85.03125 -32.09375 83.320312 -34.65625 79.90625 -36.65625 C 76.488281 -38.65625 71.023438 -40.242188 63.515625 -41.421875 L 45.21875 -44.34375 C 31.945312 -46.289062 22.285156 -49.628906 16.234375 -54.359375 C 10.191406 -59.097656 7.171875 -65.660156 7.171875 -74.046875 C 7.171875 -81.078125 9.265625 -87.101562 13.453125 -92.125 C 17.648438 -97.144531 23.457031 -100.992188 30.875 -103.671875 C 38.289062 -106.359375 46.828125 -107.703125 56.484375 -107.703125 C 63.804688 -107.703125 70.632812 -106.726562 76.96875 -104.78125 C 83.3125 -102.832031 88.847656 -100.125 93.578125 -96.65625 C 98.316406 -93.195312 101.804688 -89.078125 104.046875 -84.296875 L 87.8125 -73.3125 C 85.070312 -78.09375 80.847656 -81.898438 75.140625 -84.734375 C 69.441406 -87.566406 63.175781 -88.984375 56.34375 -88.984375 C 49.707031 -88.984375 44.289062 -87.785156 40.09375 -85.390625 C 35.90625 -83.003906 33.8125 -79.957031 33.8125 -76.25 C 33.707031 -73.320312 35.117188 -70.976562 38.046875 -69.21875 C 40.972656 -67.46875 45.707031 -66.101562 52.25 -65.125 L 70.53125 -62.34375 C 84.78125 -60.394531 95.171875 -56.929688 101.703125 -51.953125 C 108.242188 -46.972656 111.515625 -40.144531 111.515625 -31.46875 C 111.515625 -24.34375 109.316406 -18.171875 104.921875 -12.953125 C 100.535156 -7.734375 94.4375 -3.679688 86.625 -0.796875 C 78.820312 2.078125 69.703125 3.515625 59.265625 3.515625 Z M 59.265625 3.515625 "/></g></g></g></svg>