<svg xmlns="http://www.w3.org/2000/svg" xmlns:xlink="http://www.w3.org/1999/xlink" width="2000" zoomAndPan="magnify" viewBox="0 0 1500 599.999999" height="800" preserveAspectRatio="xMidYMid meet" version="1.0"><defs><g/><clipPath id="aca743dead"><path d="M 1235.015625 173.46875 L 1440 173.46875 L 1440 378.453125 L 1235.015625 378.453125 Z M 1235.015625 173.46875 " clip-rule="nonzero"/></clipPath><clipPath id="37ba11a788"><path d="M 1337.507812 173.46875 C 1280.902344 173.46875 1235.015625 219.355469 1235.015625 275.960938 C 1235.015625 332.566406 1280.902344 378.453125 1337.507812 378.453125 C 1394.113281 378.453125 1440 332.566406 1440 275.960938 C 1440 219.355469 1394.113281 173.46875 1337.507812 173.46875 Z M 1337.507812 173.46875 " clip-rule="nonzero"/></clipPath><clipPath id="e6ed1ee5fd"><path d="M 0.015625 0.46875 L 205 0.46875 L 205 205.453125 L 0.015625 205.453125 Z M 0.015625 0.46875 " clip-rule="nonzero"/></clipPath><clipPath id="3c29ec0609"><path d="M 102.507812 0.46875 C 45.902344 0.46875 0.015625 46.355469 0.015625 102.960938 C 0.015625 159.566406 45.902344 205.453125 102.507812 205.453125 C 159.113281 205.453125 205 159.566406 205 102.960938 C 205 46.355469 159.113281 0.46875 102.507812 0.46875 Z M 102.507812 0.46875 " clip-rule="nonzero"/></clipPath><clipPath id="1a0f8b6ef2"><rect x="0" width="205" y="0" height="206"/></clipPath><clipPath id="ed1bf4e85d"><rect x="0" width="178" y="0" height="145"/></clipPath><clipPath id="d12fac80b3"><rect x="0" width="1161" y="0" height="148"/></clipPath><clipPath id="1c99b7950a"><rect x="0" width="1171" y="0" height="101"/></clipPath></defs><g clip-path="url(#aca743dead)"><g clip-path="url(#37ba11a788)"><g transform="matrix(1, 0, 0, 1, 1235, 173)"><g clip-path="url(#1a0f8b6ef2)"><g clip-path="url(#e6ed1ee5fd)"><g clip-path="url(#3c29ec0609)"><path fill="#004aad" d="M 0.015625 0.46875 L 205 0.46875 L 205 205.453125 L 0.015625 205.453125 Z M 0.015625 0.46875 " fill-opacity="1" fill-rule="nonzero"/></g></g></g></g></g></g><g transform="matrix(1, 0, 0, 1, 1252, 219)"><g clip-path="url(#ed1bf4e85d)"><g fill="#ffffff" fill-opacity="1"><g transform="translate(1.174782, 107.509883)"><g><path d="M 0.578125 0 L 45.4375 -103.03125 L 77.5625 -103.03125 L 121.84375 0 L 93.765625 0 L 85.515625 -20.265625 L 36.75 -20.265625 L 28.5 0 Z M 42.25 -37.765625 L 80.015625 -37.765625 L 61.5 -83.78125 L 61.203125 -83.78125 Z M 42.25 -37.765625 "/></g></g></g><g fill="#ffffff" fill-opacity="1"><g transform="translate(127.603191, 107.509883)"><g><path d="M 7.671875 0 L 7.671875 -103.03125 L 34.4375 -103.03125 L 34.4375 0 Z M 7.671875 0 "/></g></g></g></g></g><g transform="matrix(1, 0, 0, 1, 60, 218)"><g clip-path="url(#d12fac80b3)"><g fill="#000000" fill-opacity="1"><g transform="translate(-0.00000181, 110.409031)"><g><path d="M 8.046875 0 L 8.046875 -103.15625 L 68.921875 -103.15625 C 79.066406 -103.15625 87.085938 -100.664062 92.984375 -95.6875 C 98.890625 -90.71875 101.84375 -83.941406 101.84375 -75.359375 C 101.84375 -69.992188 100.351562 -65.332031 97.375 -61.375 C 94.40625 -57.425781 90.429688 -54.769531 85.453125 -53.40625 L 85.453125 -53.265625 C 91.503906 -51.992188 96.257812 -49.160156 99.71875 -44.765625 C 103.1875 -40.378906 104.921875 -35.066406 104.921875 -28.828125 C 104.921875 -20.046875 101.675781 -13.046875 95.1875 -7.828125 C 88.695312 -2.609375 79.941406 0 68.921875 0 Z M 20.1875 -58.53125 L 67.609375 -58.53125 C 74.429688 -58.53125 79.816406 -60.039062 83.765625 -63.0625 C 87.722656 -66.09375 89.703125 -70.238281 89.703125 -75.5 C 89.703125 -80.769531 87.722656 -84.914062 83.765625 -87.9375 C 79.816406 -90.96875 74.429688 -92.484375 67.609375 -92.484375 L 20.1875 -92.484375 Z M 20.1875 -10.6875 L 67.3125 -10.6875 C 75.113281 -10.6875 81.304688 -12.367188 85.890625 -15.734375 C 90.472656 -19.097656 92.765625 -23.707031 92.765625 -29.5625 C 92.765625 -35.21875 90.472656 -39.703125 85.890625 -43.015625 C 81.304688 -46.335938 75.113281 -48 67.3125 -48 L 20.1875 -48 Z M 20.1875 -10.6875 "/></g></g></g><g fill="#000000" fill-opacity="1"><g transform="translate(105.913096, 110.409031)"><g><path d="M 8.046875 0 L 8.046875 -103.15625 L 93.21875 -103.15625 L 93.21875 -92.328125 L 19.90625 -92.328125 L 19.90625 -58.53125 L 87.359375 -58.53125 L 87.359375 -48 L 19.90625 -48 L 19.90625 -10.828125 L 94.671875 -10.828125 L 94.671875 0 Z M 8.046875 0 "/></g></g></g><g fill="#000000" fill-opacity="1"><g transform="translate(201.293277, 110.409031)"><g><path d="M 56.78125 3.65625 C 47.707031 3.65625 39.410156 2.171875 31.890625 -0.796875 C 24.378906 -3.773438 18.113281 -7.847656 13.09375 -13.015625 C 8.070312 -18.191406 4.679688 -24.144531 2.921875 -30.875 L 14.046875 -35.40625 C 15.117188 -29.945312 17.675781 -25.070312 21.71875 -20.78125 C 25.769531 -16.488281 30.84375 -13.144531 36.9375 -10.75 C 43.039062 -8.363281 49.75 -7.171875 57.0625 -7.171875 C 63.5 -7.171875 69.054688 -8.046875 73.734375 -9.796875 C 78.421875 -11.554688 82.054688 -13.945312 84.640625 -16.96875 C 87.234375 -20 88.53125 -23.414062 88.53125 -27.21875 C 88.53125 -31.800781 86.476562 -35.53125 82.375 -38.40625 C 78.28125 -41.289062 71.597656 -43.5625 62.328125 -45.21875 L 40.53125 -49.3125 C 29.894531 -51.257812 22.085938 -54.351562 17.109375 -58.59375 C 12.140625 -62.84375 9.65625 -68.53125 9.65625 -75.65625 C 9.65625 -81.894531 11.363281 -87.351562 14.78125 -92.03125 C 18.195312 -96.71875 22.925781 -100.351562 28.96875 -102.9375 C 35.019531 -105.519531 41.945312 -106.8125 49.75 -106.8125 C 56.875 -106.8125 63.382812 -105.691406 69.28125 -103.453125 C 75.1875 -101.210938 80.210938 -98.113281 84.359375 -94.15625 C 88.503906 -90.207031 91.457031 -85.597656 93.21875 -80.328125 L 82.828125 -75.359375 C 80.867188 -81.410156 76.914062 -86.359375 70.96875 -90.203125 C 65.019531 -94.054688 57.992188 -95.984375 49.890625 -95.984375 C 41.597656 -95.984375 34.867188 -94.203125 29.703125 -90.640625 C 24.535156 -87.085938 21.953125 -82.578125 21.953125 -77.109375 C 21.953125 -72.816406 23.65625 -69.378906 27.0625 -66.796875 C 30.476562 -64.210938 35.992188 -62.238281 43.609375 -60.875 L 65.109375 -56.921875 C 77.304688 -54.773438 86.28125 -51.382812 92.03125 -46.75 C 97.789062 -42.113281 100.671875 -36.09375 100.671875 -28.6875 C 100.671875 -22.34375 98.84375 -16.726562 95.1875 -11.84375 C 91.53125 -6.96875 86.40625 -3.164062 79.8125 -0.4375 C 73.226562 2.289062 65.550781 3.65625 56.78125 3.65625 Z M 56.78125 3.65625 "/></g></g></g><g fill="#000000" fill-opacity="1"><g transform="translate(302.232506, 110.409031)"><g><path d="M 43.015625 0 L 43.015625 -92.328125 L 1.171875 -92.328125 L 1.171875 -103.15625 L 97.015625 -103.15625 L 97.015625 -92.328125 L 55.171875 -92.328125 L 55.171875 0 Z M 43.015625 0 "/></g></g></g><g fill="#000000" fill-opacity="1"><g transform="translate(397.637044, 110.409031)"><g><path d="M 102.4375 2.78125 C 96.476562 2.78125 91.644531 1.222656 87.9375 -1.890625 C 84.226562 -5.015625 81.398438 -8.820312 79.453125 -13.3125 L 73.609375 -27.65625 C 72.234375 -30.96875 70.28125 -33.597656 67.75 -35.546875 C 65.21875 -37.503906 62.289062 -38.484375 58.96875 -38.484375 L 34.96875 -38.484375 L 34.96875 0 L 7.75 0 L 7.75 -104.1875 L 75.5 -104.1875 C 88.1875 -104.1875 98.160156 -101.332031 105.421875 -95.625 C 112.691406 -89.914062 116.328125 -82.085938 116.328125 -72.140625 C 116.328125 -64.722656 113.890625 -58.453125 109.015625 -53.328125 C 104.140625 -48.210938 97.359375 -44.828125 88.671875 -43.171875 L 88.671875 -43.015625 C 91.109375 -42.046875 93.128906 -40.582031 94.734375 -38.625 C 96.347656 -36.675781 97.691406 -34.382812 98.765625 -31.75 L 104.046875 -19.3125 C 104.816406 -17.75 105.738281 -16.429688 106.8125 -15.359375 C 107.882812 -14.285156 109.347656 -13.75 111.203125 -13.75 C 112.578125 -13.75 113.96875 -14.140625 115.375 -14.921875 C 116.789062 -15.703125 117.988281 -16.726562 118.96875 -18 L 124.671875 -5.859375 C 122.128906 -3.316406 118.859375 -1.242188 114.859375 0.359375 C 110.867188 1.972656 106.726562 2.78125 102.4375 2.78125 Z M 34.96875 -55.890625 L 69.796875 -55.890625 C 75.742188 -55.890625 80.445312 -57.234375 83.90625 -59.921875 C 87.375 -62.609375 89.109375 -66.191406 89.109375 -70.671875 C 89.109375 -75.253906 87.375 -78.910156 83.90625 -81.640625 C 80.445312 -84.378906 75.742188 -85.75 69.796875 -85.75 L 34.96875 -85.75 Z M 34.96875 -55.890625 "/></g></g></g><g fill="#000000" fill-opacity="1"><g transform="translate(520.08088, 110.409031)"><g><path d="M 7.75 0 L 7.75 -104.1875 L 97.75 -104.1875 L 97.75 -84.578125 L 34.09375 -84.578125 L 34.09375 -62.046875 L 91.890625 -62.046875 L 91.890625 -44.625 L 34.09375 -44.625 L 34.09375 -19.609375 L 99.203125 -19.609375 L 99.203125 0 Z M 7.75 0 "/></g></g></g><g fill="#000000" fill-opacity="1"><g transform="translate(619.84975, 110.409031)"><g><path d="M 59.265625 3.515625 C 50.484375 3.515625 42.265625 2.34375 34.609375 0 C 26.953125 -2.34375 20.390625 -5.679688 14.921875 -10.015625 C 9.460938 -14.359375 5.515625 -19.554688 3.078125 -25.609375 L 20.484375 -36.4375 C 22.429688 -32.34375 25.40625 -28.734375 29.40625 -25.609375 C 33.40625 -22.484375 38.113281 -20.039062 43.53125 -18.28125 C 48.945312 -16.53125 54.628906 -15.65625 60.578125 -15.65625 C 68.085938 -15.65625 74.035156 -16.898438 78.421875 -19.390625 C 82.816406 -21.878906 85.015625 -25.070312 85.015625 -28.96875 C 85.015625 -32.09375 83.304688 -34.65625 79.890625 -36.65625 C 76.484375 -38.65625 71.019531 -40.238281 63.5 -41.40625 L 45.21875 -44.34375 C 31.945312 -46.289062 22.285156 -49.628906 16.234375 -54.359375 C 10.191406 -59.085938 7.171875 -65.648438 7.171875 -74.046875 C 7.171875 -81.066406 9.265625 -87.085938 13.453125 -92.109375 C 17.648438 -97.140625 23.457031 -100.992188 30.875 -103.671875 C 38.289062 -106.359375 46.828125 -107.703125 56.484375 -107.703125 C 63.796875 -107.703125 70.625 -106.722656 76.96875 -104.765625 C 83.3125 -102.816406 88.847656 -100.109375 93.578125 -96.640625 C 98.304688 -93.179688 101.796875 -89.0625 104.046875 -84.28125 L 87.796875 -73.3125 C 85.066406 -78.09375 80.847656 -81.894531 75.140625 -84.71875 C 69.429688 -87.550781 63.164062 -88.96875 56.34375 -88.96875 C 49.707031 -88.96875 44.289062 -87.769531 40.09375 -85.375 C 35.894531 -82.988281 33.796875 -79.941406 33.796875 -76.234375 C 33.703125 -73.304688 35.117188 -70.960938 38.046875 -69.203125 C 40.972656 -67.453125 45.703125 -66.085938 52.234375 -65.109375 L 70.53125 -62.328125 C 84.769531 -60.378906 95.15625 -56.914062 101.6875 -51.9375 C 108.226562 -46.96875 111.5 -40.140625 111.5 -31.453125 C 111.5 -24.335938 109.300781 -18.171875 104.90625 -12.953125 C 100.519531 -7.734375 94.425781 -3.679688 86.625 -0.796875 C 78.820312 2.078125 69.703125 3.515625 59.265625 3.515625 Z M 59.265625 3.515625 "/></g></g></g><g fill="#000000" fill-opacity="1"><g transform="translate(731.175552, 110.409031)"><g><path d="M 61.75 3.359375 C 50.332031 3.359375 40.476562 1.507812 32.1875 -2.1875 C 23.894531 -5.894531 17.53125 -11.285156 13.09375 -18.359375 C 8.65625 -25.429688 6.4375 -33.945312 6.4375 -43.90625 L 6.4375 -104.1875 L 33.65625 -104.1875 L 33.65625 -44.921875 C 33.65625 -36.628906 36.191406 -30.140625 41.265625 -25.453125 C 46.335938 -20.773438 53.164062 -18.4375 61.75 -18.4375 C 70.332031 -18.4375 77.132812 -20.726562 82.15625 -25.3125 C 87.1875 -29.894531 89.703125 -36.429688 89.703125 -44.921875 L 89.703125 -104.1875 L 116.921875 -104.1875 L 116.921875 -43.90625 C 116.921875 -33.945312 114.695312 -25.429688 110.25 -18.359375 C 105.8125 -11.285156 99.472656 -5.894531 91.234375 -2.1875 C 82.992188 1.507812 73.164062 3.359375 61.75 3.359375 Z M 61.75 3.359375 "/></g></g></g><g fill="#000000" fill-opacity="1"><g transform="translate(851.863911, 110.409031)"><g><path d="M 7.75 0 L 7.75 -104.1875 L 34.96875 -104.1875 L 34.96875 -21.796875 L 89.109375 -21.796875 L 89.109375 0 Z M 7.75 0 "/></g></g></g><g fill="#000000" fill-opacity="1"><g transform="translate(940.368468, 110.409031)"><g><path d="M 39.0625 0 L 39.0625 -82.828125 L 1.609375 -82.828125 L 1.609375 -104.1875 L 103.75 -104.1875 L 103.75 -82.828125 L 66.28125 -82.828125 L 66.28125 0 Z M 39.0625 0 "/></g></g></g><g fill="#000000" fill-opacity="1"><g transform="translate(1043.063174, 110.409031)"><g><path d="M 59.265625 3.515625 C 50.484375 3.515625 42.265625 2.34375 34.609375 0 C 26.953125 -2.34375 20.390625 -5.679688 14.921875 -10.015625 C 9.460938 -14.359375 5.515625 -19.554688 3.078125 -25.609375 L 20.484375 -36.4375 C 22.429688 -32.34375 25.40625 -28.734375 29.40625 -25.609375 C 33.40625 -22.484375 38.113281 -20.039062 43.53125 -18.28125 C 48.945312 -16.53125 54.628906 -15.65625 60.578125 -15.65625 C 68.085938 -15.65625 74.035156 -16.898438 78.421875 -19.390625 C 82.816406 -21.878906 85.015625 -25.070312 85.015625 -28.96875 C 85.015625 -32.09375 83.304688 -34.65625 79.890625 -36.65625 C 76.484375 -38.65625 71.019531 -40.238281 63.5 -41.40625 L 45.21875 -44.34375 C 31.945312 -46.289062 22.285156 -49.628906 16.234375 -54.359375 C 10.191406 -59.085938 7.171875 -65.648438 7.171875 -74.046875 C 7.171875 -81.066406 9.265625 -87.085938 13.453125 -92.109375 C 17.648438 -97.140625 23.457031 -100.992188 30.875 -103.671875 C 38.289062 -106.359375 46.828125 -107.703125 56.484375 -107.703125 C 63.796875 -107.703125 70.625 -106.722656 76.96875 -104.765625 C 83.3125 -102.816406 88.847656 -100.109375 93.578125 -96.640625 C 98.304688 -93.179688 101.796875 -89.0625 104.046875 -84.28125 L 87.796875 -73.3125 C 85.066406 -78.09375 80.847656 -81.894531 75.140625 -84.71875 C 69.429688 -87.550781 63.164062 -88.96875 56.34375 -88.96875 C 49.707031 -88.96875 44.289062 -87.769531 40.09375 -85.375 C 35.894531 -82.988281 33.796875 -79.941406 33.796875 -76.234375 C 33.703125 -73.304688 35.117188 -70.960938 38.046875 -69.203125 C 40.972656 -67.453125 45.703125 -66.085938 52.234375 -65.109375 L 70.53125 -62.328125 C 84.769531 -60.378906 95.15625 -56.914062 101.6875 -51.9375 C 108.226562 -46.96875 111.5 -40.140625 111.5 -31.453125 C 111.5 -24.335938 109.300781 -18.171875 104.90625 -12.953125 C 100.519531 -7.734375 94.425781 -3.679688 86.625 -0.796875 C 78.820312 2.078125 69.703125 3.515625 59.265625 3.515625 Z M 59.265625 3.515625 "/></g></g></g></g></g><g transform="matrix(1, 0, 0, 1, 62, 325)"><g clip-path="url(#1c99b7950a)"><g fill="#737373" fill-opacity="1"><g transform="translate(8.871099, 72.945734)"><g><path d="M 33.132812 0 L 33.132812 -22.957031 L 54.578125 -56.089844 L 40.953125 -56.089844 L 27.164062 -33.554688 L 13.203125 -56.089844 L -0.421875 -56.089844 L 21.191406 -22.957031 L 21.191406 0 Z M 33.132812 0 "/></g></g></g><g fill="#737373" fill-opacity="1"><g transform="translate(60.650869, 72.945734)"><g><path d="M 24.136719 1.007812 C 37.589844 1.007812 45.664062 -8.746094 45.664062 -20.351562 C 45.664062 -31.871094 37.589844 -41.628906 24.136719 -41.628906 C 10.765625 -41.628906 2.691406 -31.871094 2.691406 -20.351562 C 2.691406 -8.746094 10.765625 1.007812 24.136719 1.007812 Z M 24.136719 -8.492188 C 17.492188 -8.492188 13.792969 -13.960938 13.792969 -20.351562 C 13.792969 -26.65625 17.492188 -32.125 24.136719 -32.125 C 30.777344 -32.125 34.5625 -26.65625 34.5625 -20.351562 C 34.5625 -13.960938 30.777344 -8.492188 24.136719 -8.492188 Z M 24.136719 -8.492188 "/></g></g></g><g fill="#737373" fill-opacity="1"><g transform="translate(106.462361, 72.945734)"><g><path d="M 43.394531 0 L 43.394531 -40.617188 L 32.714844 -40.617188 L 32.714844 -13.117188 C 30.863281 -10.765625 27.582031 -8.492188 23.460938 -8.492188 C 18.921875 -8.492188 15.976562 -10.34375 15.976562 -15.976562 L 15.976562 -40.617188 L 5.296875 -40.617188 L 5.296875 -11.773438 C 5.296875 -3.867188 9.503906 1.007812 18.417969 1.007812 C 25.058594 1.007812 29.9375 -2.019531 32.714844 -5.128906 L 32.714844 0 Z M 43.394531 0 "/></g></g></g><g fill="#737373" fill-opacity="1"><g transform="translate(152.694162, 72.945734)"><g><path d="M 15.976562 0 L 15.976562 -26.828125 C 17.742188 -29.433594 22.453125 -31.367188 25.984375 -31.367188 C 27.164062 -31.367188 28.171875 -31.285156 28.929688 -31.113281 L 28.929688 -41.542969 C 23.882812 -41.542969 18.835938 -38.683594 15.976562 -35.066406 L 15.976562 -40.617188 L 5.296875 -40.617188 L 5.296875 0 Z M 15.976562 0 "/></g></g></g><g fill="#737373" fill-opacity="1"><g transform="translate(180.516692, 72.945734)"><g/></g></g><g fill="#737373" fill-opacity="1"><g transform="translate(199.596875, 72.945734)"><g><path d="M 17.492188 0 L 17.492188 -20.097656 L 31.789062 -20.097656 C 43.898438 -20.097656 50.625 -28.257812 50.625 -38.011719 C 50.625 -47.851562 43.980469 -56.089844 31.789062 -56.089844 L 5.550781 -56.089844 L 5.550781 0 Z M 38.429688 -38.09375 C 38.429688 -33.386719 34.898438 -30.359375 30.191406 -30.359375 L 17.492188 -30.359375 L 17.492188 -45.832031 L 30.191406 -45.832031 C 34.898438 -45.832031 38.429688 -42.71875 38.429688 -38.09375 Z M 38.429688 -38.09375 "/></g></g></g><g fill="#737373" fill-opacity="1"><g transform="translate(249.611367, 72.945734)"><g><path d="M 2.691406 -20.351562 C 2.691406 -7.316406 12.027344 1.007812 24.386719 1.007812 C 30.695312 1.007812 37 -0.839844 41.121094 -4.625 L 36.414062 -11.519531 C 33.804688 -9 29.347656 -7.484375 25.566406 -7.484375 C 18.667969 -7.484375 14.546875 -11.773438 13.875 -16.902344 L 44.066406 -16.902344 L 44.066406 -19.257812 C 44.066406 -32.542969 35.824219 -41.628906 23.714844 -41.628906 C 11.351562 -41.628906 2.691406 -32.125 2.691406 -20.351562 Z M 23.714844 -33.132812 C 30.777344 -33.132812 33.46875 -28.003906 33.722656 -24.136719 L 13.707031 -24.136719 C 14.210938 -28.171875 17.070312 -33.132812 23.714844 -33.132812 Z M 23.714844 -33.132812 "/></g></g></g><g fill="#737373" fill-opacity="1"><g transform="translate(293.657581, 72.945734)"><g><path d="M 24.136719 1.007812 C 37.589844 1.007812 45.664062 -8.746094 45.664062 -20.351562 C 45.664062 -31.871094 37.589844 -41.628906 24.136719 -41.628906 C 10.765625 -41.628906 2.691406 -31.871094 2.691406 -20.351562 C 2.691406 -8.746094 10.765625 1.007812 24.136719 1.007812 Z M 24.136719 -8.492188 C 17.492188 -8.492188 13.792969 -13.960938 13.792969 -20.351562 C 13.792969 -26.65625 17.492188 -32.125 24.136719 -32.125 C 30.777344 -32.125 34.5625 -26.65625 34.5625 -20.351562 C 34.5625 -13.960938 30.777344 -8.492188 24.136719 -8.492188 Z M 24.136719 -8.492188 "/></g></g></g><g fill="#737373" fill-opacity="1"><g transform="translate(339.469073, 72.945734)"><g><path d="M 15.976562 -5.214844 C 19.257812 -1.007812 23.714844 1.007812 28.507812 1.007812 C 38.9375 1.007812 46.503906 -6.8125 46.503906 -20.351562 C 46.503906 -33.890625 38.9375 -41.628906 28.507812 -41.628906 C 23.546875 -41.628906 19.089844 -39.441406 15.976562 -35.488281 L 15.976562 -40.617188 L 5.296875 -40.617188 L 5.296875 15.472656 L 15.976562 15.472656 Z M 35.402344 -20.351562 C 35.402344 -13.285156 31.285156 -8.492188 25.144531 -8.492188 C 21.695312 -8.492188 17.742188 -10.597656 15.976562 -13.117188 L 15.976562 -27.5 C 17.742188 -30.105469 21.695312 -32.125 25.144531 -32.125 C 31.285156 -32.125 35.402344 -27.332031 35.402344 -20.351562 Z M 35.402344 -20.351562 "/></g></g></g><g fill="#737373" fill-opacity="1"><g transform="translate(386.205227, 72.945734)"><g><path d="M 15.976562 0 L 15.976562 -56.089844 L 5.296875 -56.089844 L 5.296875 0 Z M 15.976562 0 "/></g></g></g><g fill="#737373" fill-opacity="1"><g transform="translate(405.033191, 72.945734)"><g><path d="M 2.691406 -20.351562 C 2.691406 -7.316406 12.027344 1.007812 24.386719 1.007812 C 30.695312 1.007812 37 -0.839844 41.121094 -4.625 L 36.414062 -11.519531 C 33.804688 -9 29.347656 -7.484375 25.566406 -7.484375 C 18.667969 -7.484375 14.546875 -11.773438 13.875 -16.902344 L 44.066406 -16.902344 L 44.066406 -19.257812 C 44.066406 -32.542969 35.824219 -41.628906 23.714844 -41.628906 C 11.351562 -41.628906 2.691406 -32.125 2.691406 -20.351562 Z M 23.714844 -33.132812 C 30.777344 -33.132812 33.46875 -28.003906 33.722656 -24.136719 L 13.707031 -24.136719 C 14.210938 -28.171875 17.070312 -33.132812 23.714844 -33.132812 Z M 23.714844 -33.132812 "/></g></g></g><g fill="#737373" fill-opacity="1"><g transform="translate(449.079405, 72.945734)"><g><path d="M 3.953125 -5.886719 C 3.953125 -2.1875 7.0625 0.925781 10.765625 0.925781 C 14.464844 0.925781 17.574219 -2.1875 17.574219 -5.886719 C 17.574219 -9.585938 14.464844 -12.699219 10.765625 -12.699219 C 7.0625 -12.699219 3.953125 -9.585938 3.953125 -5.886719 Z M 3.953125 -5.886719 "/></g></g></g><g fill="#737373" fill-opacity="1"><g transform="translate(468.159588, 72.945734)"><g/></g></g><g fill="#737373" fill-opacity="1"><g transform="translate(487.239771, 72.945734)"><g><path d="M 33.132812 0 L 33.132812 -22.957031 L 54.578125 -56.089844 L 40.953125 -56.089844 L 27.164062 -33.554688 L 13.203125 -56.089844 L -0.421875 -56.089844 L 21.191406 -22.957031 L 21.191406 0 Z M 33.132812 0 "/></g></g></g><g fill="#737373" fill-opacity="1"><g transform="translate(539.019541, 72.945734)"><g><path d="M 24.136719 1.007812 C 37.589844 1.007812 45.664062 -8.746094 45.664062 -20.351562 C 45.664062 -31.871094 37.589844 -41.628906 24.136719 -41.628906 C 10.765625 -41.628906 2.691406 -31.871094 2.691406 -20.351562 C 2.691406 -8.746094 10.765625 1.007812 24.136719 1.007812 Z M 24.136719 -8.492188 C 17.492188 -8.492188 13.792969 -13.960938 13.792969 -20.351562 C 13.792969 -26.65625 17.492188 -32.125 24.136719 -32.125 C 30.777344 -32.125 34.5625 -26.65625 34.5625 -20.351562 C 34.5625 -13.960938 30.777344 -8.492188 24.136719 -8.492188 Z M 24.136719 -8.492188 "/></g></g></g><g fill="#737373" fill-opacity="1"><g transform="translate(584.831033, 72.945734)"><g><path d="M 43.394531 0 L 43.394531 -40.617188 L 32.714844 -40.617188 L 32.714844 -13.117188 C 30.863281 -10.765625 27.582031 -8.492188 23.460938 -8.492188 C 18.921875 -8.492188 15.976562 -10.34375 15.976562 -15.976562 L 15.976562 -40.617188 L 5.296875 -40.617188 L 5.296875 -11.773438 C 5.296875 -3.867188 9.503906 1.007812 18.417969 1.007812 C 25.058594 1.007812 29.9375 -2.019531 32.714844 -5.128906 L 32.714844 0 Z M 43.394531 0 "/></g></g></g><g fill="#737373" fill-opacity="1"><g transform="translate(631.062834, 72.945734)"><g><path d="M 15.976562 0 L 15.976562 -26.828125 C 17.742188 -29.433594 22.453125 -31.367188 25.984375 -31.367188 C 27.164062 -31.367188 28.171875 -31.285156 28.929688 -31.113281 L 28.929688 -41.542969 C 23.882812 -41.542969 18.835938 -38.683594 15.976562 -35.066406 L 15.976562 -40.617188 L 5.296875 -40.617188 L 5.296875 0 Z M 15.976562 0 "/></g></g></g><g fill="#737373" fill-opacity="1"><g transform="translate(658.885364, 72.945734)"><g/></g></g><g fill="#737373" fill-opacity="1"><g transform="translate(677.965547, 72.945734)"><g><path d="M 2.859375 -28.003906 C 2.859375 -11.101562 15.222656 1.007812 32.125 1.007812 C 49.113281 1.007812 61.472656 -11.101562 61.472656 -28.003906 C 61.472656 -44.90625 49.113281 -57.015625 32.125 -57.015625 C 15.222656 -57.015625 2.859375 -44.90625 2.859375 -28.003906 Z M 49.195312 -28.003906 C 49.195312 -17.574219 42.46875 -9.585938 32.125 -9.585938 C 21.78125 -9.585938 15.136719 -17.574219 15.136719 -28.003906 C 15.136719 -38.515625 21.78125 -46.421875 32.125 -46.421875 C 42.46875 -46.421875 49.195312 -38.515625 49.195312 -28.003906 Z M 49.195312 -28.003906 "/></g></g></g><g fill="#737373" fill-opacity="1"><g transform="translate(739.832549, 72.945734)"><g><path d="M 15.976562 0 L 15.976562 -26.828125 C 17.742188 -29.433594 22.453125 -31.367188 25.984375 -31.367188 C 27.164062 -31.367188 28.171875 -31.285156 28.929688 -31.113281 L 28.929688 -41.542969 C 23.882812 -41.542969 18.835938 -38.683594 15.976562 -35.066406 L 15.976562 -40.617188 L 5.296875 -40.617188 L 5.296875 0 Z M 15.976562 0 "/></g></g></g><g fill="#737373" fill-opacity="1"><g transform="translate(767.655079, 72.945734)"><g><path d="M 4.457031 10.429688 C 9.503906 14.886719 14.96875 16.484375 21.949219 16.484375 C 31.957031 16.484375 43.898438 12.699219 43.898438 -2.773438 L 43.898438 -40.617188 L 33.132812 -40.617188 L 33.132812 -35.402344 C 29.855469 -39.523438 25.480469 -41.628906 20.601562 -41.628906 C 10.34375 -41.628906 2.691406 -34.226562 2.691406 -20.941406 C 2.691406 -7.398438 10.429688 -0.253906 20.601562 -0.253906 C 25.566406 -0.253906 29.9375 -2.605469 33.132812 -6.644531 L 33.132812 -2.523438 C 33.132812 5.464844 27.078125 7.738281 21.949219 7.738281 C 16.820312 7.738281 12.53125 6.308594 9.25 2.691406 Z M 33.132812 -14.378906 C 31.367188 -11.773438 27.5 -9.753906 23.96875 -9.753906 C 17.914062 -9.753906 13.707031 -13.960938 13.707031 -20.941406 C 13.707031 -27.917969 17.914062 -32.125 23.96875 -32.125 C 27.5 -32.125 31.367188 -30.191406 33.132812 -27.5 Z M 33.132812 -14.378906 "/></g></g></g><g fill="#737373" fill-opacity="1"><g transform="translate(814.391233, 72.945734)"><g><path d="M 40.367188 0 L 40.367188 -26.238281 C 40.367188 -37.925781 31.871094 -41.628906 22.621094 -41.628906 C 16.230469 -41.628906 9.839844 -39.609375 4.878906 -35.234375 L 8.914062 -28.085938 C 12.363281 -31.285156 16.398438 -32.882812 20.773438 -32.882812 C 26.152344 -32.882812 29.6875 -30.191406 29.6875 -26.070312 L 29.6875 -20.433594 C 26.996094 -23.714844 22.199219 -25.398438 16.820312 -25.398438 C 10.34375 -25.398438 2.691406 -21.949219 2.691406 -12.445312 C 2.691406 -3.363281 10.34375 1.007812 16.820312 1.007812 C 22.117188 1.007812 26.910156 -0.925781 29.6875 -4.203125 L 29.6875 0 Z M 29.6875 -9.753906 C 27.917969 -7.398438 24.554688 -6.222656 21.109375 -6.222656 C 16.902344 -6.222656 13.457031 -8.410156 13.457031 -12.195312 C 13.457031 -16.0625 16.902344 -18.332031 21.109375 -18.332031 C 24.554688 -18.332031 27.917969 -17.15625 29.6875 -14.800781 Z M 29.6875 -9.753906 "/></g></g></g><g fill="#737373" fill-opacity="1"><g transform="translate(857.59683, 72.945734)"><g><path d="M 43.394531 0 L 43.394531 -28.675781 C 43.394531 -36.582031 39.105469 -41.628906 30.191406 -41.628906 C 23.546875 -41.628906 18.585938 -38.429688 15.976562 -35.320312 L 15.976562 -40.617188 L 5.296875 -40.617188 L 5.296875 0 L 15.976562 0 L 15.976562 -27.332031 C 17.742188 -29.769531 21.023438 -32.125 25.230469 -32.125 C 29.769531 -32.125 32.714844 -30.191406 32.714844 -24.554688 L 32.714844 0 Z M 43.394531 0 "/></g></g></g><g fill="#737373" fill-opacity="1"><g transform="translate(903.828631, 72.945734)"><g><path d="M 10.597656 -46.589844 C 14.128906 -46.589844 16.988281 -49.449219 16.988281 -52.980469 C 16.988281 -56.511719 14.128906 -59.371094 10.597656 -59.371094 C 7.148438 -59.371094 4.203125 -56.511719 4.203125 -52.980469 C 4.203125 -49.449219 7.148438 -46.589844 10.597656 -46.589844 Z M 15.976562 0 L 15.976562 -40.617188 L 5.296875 -40.617188 L 5.296875 0 Z M 15.976562 0 "/></g></g></g><g fill="#737373" fill-opacity="1"><g transform="translate(922.656595, 72.945734)"><g><path d="M 36.664062 0 L 36.664062 -9.335938 L 17.742188 -9.335938 L 36.328125 -32.882812 L 36.328125 -40.617188 L 3.53125 -40.617188 L 3.53125 -31.285156 L 21.863281 -31.285156 L 3.53125 -7.988281 L 3.53125 0 Z M 36.664062 0 "/></g></g></g><g fill="#737373" fill-opacity="1"><g transform="translate(960.482313, 72.945734)"><g><path d="M 40.367188 0 L 40.367188 -26.238281 C 40.367188 -37.925781 31.871094 -41.628906 22.621094 -41.628906 C 16.230469 -41.628906 9.839844 -39.609375 4.878906 -35.234375 L 8.914062 -28.085938 C 12.363281 -31.285156 16.398438 -32.882812 20.773438 -32.882812 C 26.152344 -32.882812 29.6875 -30.191406 29.6875 -26.070312 L 29.6875 -20.433594 C 26.996094 -23.714844 22.199219 -25.398438 16.820312 -25.398438 C 10.34375 -25.398438 2.691406 -21.949219 2.691406 -12.445312 C 2.691406 -3.363281 10.34375 1.007812 16.820312 1.007812 C 22.117188 1.007812 26.910156 -0.925781 29.6875 -4.203125 L 29.6875 0 Z M 29.6875 -9.753906 C 27.917969 -7.398438 24.554688 -6.222656 21.109375 -6.222656 C 16.902344 -6.222656 13.457031 -8.410156 13.457031 -12.195312 C 13.457031 -16.0625 16.902344 -18.332031 21.109375 -18.332031 C 24.554688 -18.332031 27.917969 -17.15625 29.6875 -14.800781 Z M 29.6875 -9.753906 "/></g></g></g><g fill="#737373" fill-opacity="1"><g transform="translate(1003.68791, 72.945734)"><g><path d="M 18.921875 1.007812 C 23.378906 1.007812 26.238281 -0.167969 27.835938 -1.597656 L 25.566406 -9.671875 C 24.976562 -9.082031 23.460938 -8.492188 21.863281 -8.492188 C 19.511719 -8.492188 18.164062 -10.429688 18.164062 -12.949219 L 18.164062 -31.285156 L 26.40625 -31.285156 L 26.40625 -40.617188 L 18.164062 -40.617188 L 18.164062 -51.71875 L 7.398438 -51.71875 L 7.398438 -40.617188 L 0.671875 -40.617188 L 0.671875 -31.285156 L 7.398438 -31.285156 L 7.398438 -10.089844 C 7.398438 -2.859375 11.4375 1.007812 18.921875 1.007812 Z M 18.921875 1.007812 "/></g></g></g><g fill="#737373" fill-opacity="1"><g transform="translate(1029.661032, 72.945734)"><g><path d="M 10.597656 -46.589844 C 14.128906 -46.589844 16.988281 -49.449219 16.988281 -52.980469 C 16.988281 -56.511719 14.128906 -59.371094 10.597656 -59.371094 C 7.148438 -59.371094 4.203125 -56.511719 4.203125 -52.980469 C 4.203125 -49.449219 7.148438 -46.589844 10.597656 -46.589844 Z M 15.976562 0 L 15.976562 -40.617188 L 5.296875 -40.617188 L 5.296875 0 Z M 15.976562 0 "/></g></g></g><g fill="#737373" fill-opacity="1"><g transform="translate(1048.488996, 72.945734)"><g><path d="M 24.136719 1.007812 C 37.589844 1.007812 45.664062 -8.746094 45.664062 -20.351562 C 45.664062 -31.871094 37.589844 -41.628906 24.136719 -41.628906 C 10.765625 -41.628906 2.691406 -31.871094 2.691406 -20.351562 C 2.691406 -8.746094 10.765625 1.007812 24.136719 1.007812 Z M 24.136719 -8.492188 C 17.492188 -8.492188 13.792969 -13.960938 13.792969 -20.351562 C 13.792969 -26.65625 17.492188 -32.125 24.136719 -32.125 C 30.777344 -32.125 34.5625 -26.65625 34.5625 -20.351562 C 34.5625 -13.960938 30.777344 -8.492188 24.136719 -8.492188 Z M 24.136719 -8.492188 "/></g></g></g><g fill="#737373" fill-opacity="1"><g transform="translate(1094.300489, 72.945734)"><g><path d="M 43.394531 0 L 43.394531 -28.675781 C 43.394531 -36.582031 39.105469 -41.628906 30.191406 -41.628906 C 23.546875 -41.628906 18.585938 -38.429688 15.976562 -35.320312 L 15.976562 -40.617188 L 5.296875 -40.617188 L 5.296875 0 L 15.976562 0 L 15.976562 -27.332031 C 17.742188 -29.769531 21.023438 -32.125 25.230469 -32.125 C 29.769531 -32.125 32.714844 -30.191406 32.714844 -24.554688 L 32.714844 0 Z M 43.394531 0 "/></g></g></g><g fill="#737373" fill-opacity="1"><g transform="translate(1140.532289, 72.945734)"><g><path d="M 3.953125 -5.886719 C 3.953125 -2.1875 7.0625 0.925781 10.765625 0.925781 C 14.464844 0.925781 17.574219 -2.1875 17.574219 -5.886719 C 17.574219 -9.585938 14.464844 -12.699219 10.765625 -12.699219 C 7.0625 -12.699219 3.953125 -9.585938 3.953125 -5.886719 Z M 3.953125 -5.886719 "/></g></g></g></g></g></svg>