<?xml version="1.0" encoding="utf-8"?>
<!-- Generator: Adobe Illustrator 30.5.1, SVG Export Plug-In . SVG Version: 9.03 Build 0)  -->
<svg version="1.0" id="Layer_1" xmlns="http://www.w3.org/2000/svg" xmlns:xlink="http://www.w3.org/1999/xlink" x="0px" y="0px"
	 viewBox="0 0 2000 800" style="enable-background:new 0 0 2000 800;" xml:space="preserve">
<style type="text/css">
	.st0{clip-path:url(#SVGID_00000160884076193494285300000002518427874427649927_);}
	.st1{clip-path:url(#SVGID_00000109735606911328598880000000146659024408876440_);}
	.st2{clip-path:url(#SVGID_00000180365184158509194030000011474357488728285853_);}
	.st3{clip-path:url(#SVGID_00000094616822746859737850000017435997042823203248_);}
	.st4{clip-path:url(#SVGID_00000078764878354788101680000002083718202769577366_);}
	.st5{fill:#FFFFFF;}
	.st6{clip-path:url(#SVGID_00000038382898199394796030000004107217835905185689_);}
	.st7{fill:#004AAD;}
	.st8{clip-path:url(#SVGID_00000108989336120809441120000003196700017389781889_);}
</style>
<g>
	<defs>
		<rect id="SVGID_1_" x="1646.7" y="231.3" width="273.3" height="273.3"/>
	</defs>
	<clipPath id="SVGID_00000031887225181650219880000002774831251168626873_">
		<use xlink:href="#SVGID_1_"  style="overflow:visible;"/>
	</clipPath>
	<g style="clip-path:url(#SVGID_00000031887225181650219880000002774831251168626873_);">
		<g>
			<defs>
				<circle id="SVGID_00000099642856232010629310000015892794499414105263_" cx="1783.3" cy="367.9" r="136.7"/>
			</defs>
			<clipPath id="SVGID_00000062161056288335979590000010515722953553702808_">
				<use xlink:href="#SVGID_00000099642856232010629310000015892794499414105263_"  style="overflow:visible;"/>
			</clipPath>
			<g style="clip-path:url(#SVGID_00000062161056288335979590000010515722953553702808_);">
				<g transform="matrix(1, 0, 0, 1, 1235, 173)">
					<g>
						<defs>
							<rect id="SVGID_00000174566649574775138040000008498127154542008235_" x="411.7" y="57.7" width="273.3" height="274.7"/>
						</defs>
						<clipPath id="SVGID_00000015349281120839288250000002846465404517211301_">
							<use xlink:href="#SVGID_00000174566649574775138040000008498127154542008235_"  style="overflow:visible;"/>
						</clipPath>
						<g style="clip-path:url(#SVGID_00000015349281120839288250000002846465404517211301_);">
							<g>
								<defs>
									<rect id="SVGID_00000151502048765893871500000003999950898405449358_" x="411.7" y="58.3" width="273.3" height="273.3"/>
								</defs>
								<clipPath id="SVGID_00000006695495561186238970000008872617738929732230_">
									<use xlink:href="#SVGID_00000151502048765893871500000003999950898405449358_"  style="overflow:visible;"/>
								</clipPath>
								<g style="clip-path:url(#SVGID_00000006695495561186238970000008872617738929732230_);">
									<g>
										<defs>
											<circle id="SVGID_00000130625200958300251370000009562406672553177761_" cx="548.3" cy="194.9" r="136.7"/>
										</defs>
										<clipPath id="SVGID_00000110470590602098558270000008451261447259644048_">
											<use xlink:href="#SVGID_00000130625200958300251370000009562406672553177761_"  style="overflow:visible;"/>
										</clipPath>
										<g style="clip-path:url(#SVGID_00000110470590602098558270000008451261447259644048_);">
											<path class="st5" d="M411.7,58.3H685v273.3H411.7V58.3z"/>
										</g>
									</g>
								</g>
							</g>
						</g>
					</g>
				</g>
			</g>
		</g>
	</g>
</g>
<g transform="matrix(1, 0, 0, 1, 1252, 219)">
	<g>
		<defs>
			<rect id="SVGID_00000053539792604068635560000001821667020021479867_" x="417.3" y="73" width="237.3" height="193.3"/>
		</defs>
		<clipPath id="SVGID_00000034789902311331121250000004364302372061068177_">
			<use xlink:href="#SVGID_00000053539792604068635560000001821667020021479867_"  style="overflow:visible;"/>
		</clipPath>
		<g style="clip-path:url(#SVGID_00000034789902311331121250000004364302372061068177_);">
			<g>
				<g transform="translate(1.174782, 107.509883)">
					<g>
						<path class="st7" d="M418.5,108.8l59.8-137.4h42.8l59,137.4h-37.4l-11-27h-65l-11,27H418.5z M474.1,58.5h50.4L499.7-2.9h-0.4
							L474.1,58.5z"/>
					</g>
				</g>
			</g>
			<g>
				<g transform="translate(127.603191, 107.509883)">
					<g>
						<path class="st7" d="M470.1,108.8V-28.5h35.7v137.4H470.1z"/>
					</g>
				</g>
			</g>
		</g>
	</g>
</g>
<g transform="matrix(1, 0, 0, 1, 60, 218)">
	<g>
		<defs>
			<rect id="SVGID_00000160155294606960156840000015886780184689865908_" x="20" y="72.7" width="1548" height="197.3"/>
		</defs>
		<clipPath id="SVGID_00000171684331222886192390000014275053718117151159_">
			<use xlink:href="#SVGID_00000160155294606960156840000015886780184689865908_"  style="overflow:visible;"/>
		</clipPath>
		<g style="clip-path:url(#SVGID_00000171684331222886192390000014275053718117151159_);">
			<g>
				<g transform="translate(-0.00000181, 110.409031)">
					<g>
						<path class="st5" d="M30.7,109.5V-28.1h81.2c13.5,0,24.2,3.3,32.1,10c7.9,6.6,11.8,15.7,11.8,27.1c0,7.2-2,13.4-6,18.6
							c-4,5.3-9.3,8.8-15.9,10.6v0.2c8.1,1.7,14.4,5.5,19,11.3c4.6,5.8,6.9,12.9,6.9,21.3c0,11.7-4.3,21-13,28
							c-8.7,7-20.3,10.4-35,10.4H30.7z M46.9,31.4h63.2c9.1,0,16.3-2,21.5-6c5.3-4,7.9-9.6,7.9-16.6c0-7-2.6-12.6-7.9-16.6
							c-5.3-4-12.4-6.1-21.5-6.1H46.9V31.4z M46.9,95.2h62.8c10.4,0,18.7-2.2,24.8-6.7c6.1-4.5,9.2-10.6,9.2-18.4
							c0-7.5-3.1-13.5-9.2-17.9c-6.1-4.4-14.4-6.6-24.8-6.6H46.9V95.2z"/>
					</g>
				</g>
			</g>
			<g>
				<g transform="translate(105.913096, 110.409031)">
					<g>
						<path class="st5" d="M66,109.5V-28.1h113.6v14.4H81.8v45.1h89.9v14H81.8V95h99.7v14.4H66z"/>
					</g>
				</g>
			</g>
			<g>
				<g transform="translate(201.293277, 110.409031)">
					<g>
						<path class="st5" d="M162.8,114.3c-12.1,0-23.2-2-33.2-5.9c-10-4-18.4-9.4-25.1-16.3C97.9,85.2,93.3,77.3,91,68.3l14.8-6
							c1.4,7.3,4.8,13.8,10.2,19.5c5.4,5.7,12.2,10.2,20.3,13.4c8.1,3.2,17.1,4.8,26.8,4.8c8.6,0,16-1.2,22.2-3.5
							c6.2-2.3,11.1-5.5,14.5-9.6c3.5-4,5.2-8.6,5.2-13.7c0-6.1-2.7-11.1-8.2-14.9c-5.5-3.8-14.4-6.9-26.7-9.1l-29.1-5.5
							c-14.2-2.6-24.6-6.7-31.2-12.4c-6.6-5.7-9.9-13.3-9.9-22.8c0-8.3,2.3-15.6,6.8-21.8c4.6-6.3,10.9-11.1,18.9-14.5
							c8.1-3.4,17.3-5.2,27.7-5.2c9.5,0,18.2,1.5,26,4.5c7.9,3,14.6,7.1,20.1,12.4c5.5,5.3,9.5,11.4,11.8,18.4L197.5,9
							c-2.6-8.1-7.9-14.7-15.8-19.8c-7.9-5.1-17.3-7.7-28.1-7.7c-11.1,0-20,2.4-26.9,7.1c-6.9,4.7-10.3,10.8-10.3,18
							c0,5.7,2.3,10.3,6.8,13.8c4.6,3.4,11.9,6.1,22.1,7.9l28.7,5.3c16.3,2.9,28.2,7.4,35.9,13.6c7.7,6.2,11.5,14.2,11.5,24.1
							c0,8.5-2.4,15.9-7.3,22.5c-4.9,6.5-11.7,11.6-20.5,15.2C184.7,112.5,174.5,114.3,162.8,114.3z"/>
					</g>
				</g>
			</g>
			<g>
				<g transform="translate(302.232506, 110.409031)">
					<g>
						<path class="st5" d="M178.1,109.5V-13.6h-55.8v-14.4h127.8v14.4h-55.8v123.1H178.1z"/>
					</g>
				</g>
			</g>
			<g>
				<g transform="translate(397.637044, 110.409031)">
					<g>
						<path class="st5" d="M289.1,113.2c-7.9,0-14.4-2.1-19.3-6.2c-4.9-4.2-8.7-9.2-11.3-15.2l-7.8-19.1c-1.8-4.4-4.4-7.9-7.8-10.5
							c-3.4-2.6-7.3-3.9-11.7-3.9h-32v51.3h-36.3V-29.4h90.3c16.9,0,30.2,3.8,39.9,11.4c9.7,7.6,14.5,18.1,14.5,31.3
							c0,9.9-3.2,18.2-9.8,25.1c-6.5,6.8-15.5,11.3-27.1,13.5v0.2c3.2,1.3,5.9,3.2,8.1,5.9c2.2,2.6,3.9,5.7,5.4,9.2l7,16.6
							c1,2.1,2.3,3.8,3.7,5.3c1.4,1.4,3.4,2.1,5.9,2.1c1.8,0,3.7-0.5,5.6-1.6c1.9-1,3.5-2.4,4.8-4.1l7.6,16.2
							c-3.4,3.4-7.8,6.2-13.1,8.3C300.4,112.1,294.8,113.2,289.1,113.2z M199.2,34.9h46.4c7.9,0,14.2-1.8,18.8-5.4
							c4.6-3.6,6.9-8.4,6.9-14.3c0-6.1-2.3-11-6.9-14.6c-4.6-3.7-10.9-5.5-18.8-5.5h-46.4V34.9z"/>
					</g>
				</g>
			</g>
			<g>
				<g transform="translate(520.08088, 110.409031)">
					<g>
						<path class="st5" d="M203.7,109.5V-29.4h120v26.1h-84.9v30h77.1V50h-77.1v33.4h86.8v26.1H203.7z"/>
					</g>
				</g>
			</g>
			<g>
				<g transform="translate(619.84975, 110.409031)">
					<g>
						<path class="st5" d="M305.6,114.2c-11.7,0-22.7-1.6-32.9-4.7c-10.2-3.1-19-7.6-26.3-13.4c-7.3-5.8-12.5-12.7-15.8-20.8
							l23.2-14.4c2.6,5.5,6.6,10.3,11.9,14.4c5.3,4.2,11.6,7.4,18.8,9.8c7.2,2.3,14.8,3.5,22.7,3.5c10,0,17.9-1.7,23.8-5
							c5.9-3.3,8.8-7.6,8.8-12.8c0-4.2-2.3-7.6-6.8-10.2c-4.5-2.7-11.8-4.8-21.9-6.3l-24.4-3.9c-17.7-2.6-30.6-7-38.6-13.4
							c-8.1-6.3-12.1-15.1-12.1-26.3c0-9.4,2.8-17.4,8.4-24.1c5.6-6.7,13.3-11.8,23.2-15.4c9.9-3.6,21.3-5.4,34.1-5.4
							c9.8,0,18.9,1.3,27.3,3.9c8.5,2.6,15.8,6.2,22.1,10.8c6.3,4.6,11,10.1,14,16.5l-21.7,14.6c-3.6-6.4-9.3-11.4-16.9-15.2
							c-7.6-3.8-16-5.7-25.1-5.7c-8.8,0-16.1,1.6-21.7,4.8c-5.6,3.2-8.4,7.2-8.4,12.2c-0.1,3.9,1.8,7,5.7,9.4
							c3.9,2.3,10.2,4.2,18.9,5.5l24.4,3.7c19,2.6,32.8,7.2,41.5,13.9c8.7,6.6,13.1,15.7,13.1,27.3c0,9.5-2.9,17.7-8.8,24.7
							c-5.8,7-14,12.4-24.4,16.2C331.7,112.2,319.6,114.2,305.6,114.2z"/>
					</g>
				</g>
			</g>
			<g>
				<g transform="translate(731.175552, 110.409031)">
					<g>
						<path class="st5" d="M346.1,113.9c-15.2,0-28.4-2.5-39.4-7.4c-11.1-4.9-19.5-12.1-25.5-21.6c-5.9-9.4-8.9-20.8-8.9-34.1v-80.4
							h36.3v79c0,11.1,3.4,19.7,10.1,26c6.8,6.2,15.9,9.4,27.3,9.4c11.4,0,20.5-3.1,27.2-9.2c6.7-6.1,10.1-14.8,10.1-26.1v-79h36.3
							v80.4c0,13.3-3,24.6-8.9,34.1c-5.9,9.4-14.4,16.6-25.4,21.6C374.4,111.5,361.3,113.9,346.1,113.9z"/>
					</g>
				</g>
			</g>
			<g>
				<g transform="translate(851.863911, 110.409031)">
					<g>
						<path class="st5" d="M314.3,109.5V-29.4h36.3V80.4h72.2v29.1H314.3z"/>
					</g>
				</g>
			</g>
			<g>
				<g transform="translate(940.368468, 110.409031)">
					<g>
						<path class="st5" d="M385.5,109.5V-1h-49.9v-28.5h136.2V-1h-50v110.4H385.5z"/>
					</g>
				</g>
			</g>
			<g>
				<g transform="translate(1043.063174, 110.409031)">
					<g>
						<path class="st5" d="M446.7,114.2c-11.7,0-22.7-1.6-32.9-4.7c-10.2-3.1-19-7.6-26.2-13.4c-7.3-5.8-12.5-12.7-15.8-20.8
							L395,60.9c2.6,5.5,6.6,10.3,11.9,14.4c5.3,4.2,11.6,7.4,18.8,9.8c7.2,2.3,14.8,3.5,22.7,3.5c10,0,17.9-1.7,23.8-5
							c5.9-3.3,8.8-7.6,8.8-12.8c0-4.2-2.3-7.6-6.8-10.2c-4.5-2.7-11.8-4.8-21.9-6.3L428,50.3c-17.7-2.6-30.6-7-38.6-13.4
							c-8.1-6.3-12.1-15.1-12.1-26.3c0-9.4,2.8-17.4,8.4-24.1c5.6-6.7,13.3-11.8,23.2-15.4c9.9-3.6,21.3-5.4,34.1-5.4
							c9.8,0,18.9,1.3,27.3,3.9c8.5,2.6,15.8,6.2,22.1,10.8c6.3,4.6,11,10.1,14,16.5l-21.7,14.6c-3.6-6.4-9.3-11.4-16.9-15.2
							c-7.6-3.8-16-5.7-25.1-5.7c-8.8,0-16.1,1.6-21.7,4.8c-5.6,3.2-8.4,7.2-8.4,12.2c-0.1,3.9,1.8,7,5.7,9.4
							c3.9,2.3,10.2,4.2,18.9,5.5l24.4,3.7c19,2.6,32.8,7.2,41.5,13.9c8.7,6.6,13.1,15.7,13.1,27.3c0,9.5-2.9,17.7-8.8,24.7
							c-5.8,7-14,12.4-24.4,16.2C472.8,112.2,460.6,114.2,446.7,114.2z"/>
					</g>
				</g>
			</g>
		</g>
	</g>
</g>
</svg>
