<svg xmlns="http://www.w3.org/2000/svg" xmlns:xlink="http://www.w3.org/1999/xlink" width="2000" zoomAndPan="magnify" viewBox="0 0 1500 599.999999" height="800" preserveAspectRatio="xMidYMid meet" version="1.0"><defs><g/><clipPath id="27c4c3752d"><path d="M 1170.578125 194.394531 L 1474.710938 194.394531 L 1474.710938 498.523438 L 1170.578125 498.523438 Z M 1170.578125 194.394531 " clip-rule="nonzero"/></clipPath><clipPath id="7266163ffb"><path d="M 1322.644531 194.394531 C 1238.660156 194.394531 1170.578125 262.476562 1170.578125 346.460938 C 1170.578125 430.441406 1238.660156 498.523438 1322.644531 498.523438 C 1406.628906 498.523438 1474.710938 430.441406 1474.710938 346.460938 C 1474.710938 262.476562 1406.628906 194.394531 1322.644531 194.394531 Z M 1322.644531 194.394531 " clip-rule="nonzero"/></clipPath><clipPath id="385012c7f2"><path d="M 0.578125 0.394531 L 304.710938 0.394531 L 304.710938 304.523438 L 0.578125 304.523438 Z M 0.578125 0.394531 " clip-rule="nonzero"/></clipPath><clipPath id="d3a5191abd"><path d="M 152.644531 0.394531 C 68.660156 0.394531 0.578125 68.476562 0.578125 152.460938 C 0.578125 236.441406 68.660156 304.523438 152.644531 304.523438 C 236.628906 304.523438 304.710938 236.441406 304.710938 152.460938 C 304.710938 68.476562 236.628906 0.394531 152.644531 0.394531 Z M 152.644531 0.394531 " clip-rule="nonzero"/></clipPath><clipPath id="eccf399029"><rect x="0" width="305" y="0" height="305"/></clipPath><clipPath id="d37d3c22e1"><rect x="0" width="264" y="0" height="214"/></clipPath><clipPath id="776181cedc"><rect x="0" width="1131" y="0" height="400"/></clipPath><clipPath id="8f68bcec33"><rect x="0" width="1170" y="0" height="102"/></clipPath></defs><g clip-path="url(#27c4c3752d)"><g clip-path="url(#7266163ffb)"><g transform="matrix(1, 0, 0, 1, 1170, 194)"><g clip-path="url(#eccf399029)"><g clip-path="url(#385012c7f2)"><g clip-path="url(#d3a5191abd)"><path fill="#000000" d="M 0.578125 0.394531 L 304.710938 0.394531 L 304.710938 304.523438 L 0.578125 304.523438 Z M 0.578125 0.394531 " fill-opacity="1" fill-rule="nonzero"/></g></g></g></g></g></g><g transform="matrix(1, 0, 0, 1, 1196, 263)"><g clip-path="url(#d37d3c22e1)"><g fill="#ffffff" fill-opacity="1"><g transform="translate(1.522159, 158.457011)"><g><path d="M 0.859375 0 L 67.40625 -152.859375 L 115.078125 -152.859375 L 180.765625 0 L 139.125 0 L 126.875 -30.0625 L 54.53125 -30.0625 L 42.296875 0 Z M 62.6875 -56.03125 L 118.71875 -56.03125 L 91.25 -124.296875 L 90.8125 -124.296875 Z M 62.6875 -56.03125 "/></g></g></g><g fill="#ffffff" fill-opacity="1"><g transform="translate(189.100532, 158.457011)"><g><path d="M 11.375 0 L 11.375 -152.859375 L 51.09375 -152.859375 L 51.09375 0 Z M 11.375 0 "/></g></g></g></g></g><g transform="matrix(1, 0, 0, 1, 25, 79)"><g clip-path="url(#776181cedc)"><g fill="#000000" fill-opacity="1"><g transform="translate(0.290338, 164.009013)"><g><path d="M 11.9375 0 L 11.9375 -153.046875 L 102.25 -153.046875 C 117.300781 -153.046875 129.203125 -149.351562 137.953125 -141.96875 C 146.710938 -134.59375 151.09375 -124.535156 151.09375 -111.796875 C 151.09375 -103.835938 148.882812 -96.925781 144.46875 -91.0625 C 140.0625 -85.207031 134.164062 -81.265625 126.78125 -79.234375 L 126.78125 -79.015625 C 135.757812 -77.140625 142.816406 -72.941406 147.953125 -66.421875 C 153.085938 -59.910156 155.65625 -52.023438 155.65625 -42.765625 C 155.65625 -29.742188 150.84375 -19.359375 141.21875 -11.609375 C 131.59375 -3.867188 118.601562 0 102.25 0 Z M 29.953125 -86.84375 L 100.296875 -86.84375 C 110.429688 -86.84375 118.425781 -89.082031 124.28125 -93.5625 C 130.144531 -98.050781 133.078125 -104.203125 133.078125 -112.015625 C 133.078125 -119.835938 130.144531 -125.988281 124.28125 -130.46875 C 118.425781 -134.957031 110.429688 -137.203125 100.296875 -137.203125 L 29.953125 -137.203125 Z M 29.953125 -15.84375 L 99.859375 -15.84375 C 111.441406 -15.84375 120.632812 -18.335938 127.4375 -23.328125 C 134.238281 -28.328125 137.640625 -35.171875 137.640625 -43.859375 C 137.640625 -52.242188 134.238281 -58.894531 127.4375 -63.8125 C 120.632812 -68.738281 111.441406 -71.203125 99.859375 -71.203125 L 29.953125 -71.203125 Z M 29.953125 -15.84375 "/></g></g></g><g fill="#000000" fill-opacity="1"><g transform="translate(157.430705, 164.009013)"><g><path d="M 11.9375 0 L 11.9375 -153.046875 L 138.28125 -153.046875 L 138.28125 -136.984375 L 29.53125 -136.984375 L 29.53125 -86.84375 L 129.609375 -86.84375 L 129.609375 -71.203125 L 29.53125 -71.203125 L 29.53125 -16.0625 L 140.453125 -16.0625 L 140.453125 0 Z M 11.9375 0 "/></g></g></g><g fill="#000000" fill-opacity="1"><g transform="translate(298.943673, 164.009013)"><g><path d="M 84.234375 5.421875 C 70.773438 5.421875 58.472656 3.21875 47.328125 -1.1875 C 36.179688 -5.601562 26.878906 -11.644531 19.421875 -19.3125 C 11.972656 -26.988281 6.945312 -35.820312 4.34375 -45.8125 L 20.84375 -52.53125 C 22.4375 -44.425781 26.234375 -37.191406 32.234375 -30.828125 C 38.242188 -24.460938 45.769531 -19.503906 54.8125 -15.953125 C 63.863281 -12.410156 73.816406 -10.640625 84.671875 -10.640625 C 94.222656 -10.640625 102.46875 -11.941406 109.40625 -14.546875 C 116.351562 -17.148438 121.742188 -20.691406 125.578125 -25.171875 C 129.421875 -29.660156 131.34375 -34.726562 131.34375 -40.375 C 131.34375 -47.175781 128.300781 -52.710938 122.21875 -56.984375 C 116.144531 -61.253906 106.234375 -64.617188 92.484375 -67.078125 L 60.140625 -73.15625 C 44.359375 -76.050781 32.773438 -80.644531 25.390625 -86.9375 C 18.015625 -93.238281 14.328125 -101.671875 14.328125 -112.234375 C 14.328125 -121.492188 16.859375 -129.597656 21.921875 -136.546875 C 26.992188 -143.492188 34.015625 -148.882812 42.984375 -152.71875 C 51.953125 -156.5625 62.226562 -158.484375 73.8125 -158.484375 C 84.375 -158.484375 94.03125 -156.816406 102.78125 -153.484375 C 111.539062 -150.148438 118.992188 -145.550781 125.140625 -139.6875 C 131.296875 -133.832031 135.675781 -127 138.28125 -119.1875 L 122.875 -111.796875 C 119.976562 -120.773438 114.113281 -128.117188 105.28125 -133.828125 C 96.457031 -139.546875 86.039062 -142.40625 74.03125 -142.40625 C 61.726562 -142.40625 51.738281 -139.765625 44.0625 -134.484375 C 36.394531 -129.203125 32.5625 -122.507812 32.5625 -114.40625 C 32.5625 -108.039062 35.09375 -102.9375 40.15625 -99.09375 C 45.226562 -95.257812 53.40625 -92.332031 64.6875 -90.3125 L 96.609375 -84.453125 C 114.703125 -81.265625 128.015625 -76.234375 136.546875 -69.359375 C 145.085938 -62.484375 149.359375 -53.546875 149.359375 -42.546875 C 149.359375 -33.140625 146.644531 -24.816406 141.21875 -17.578125 C 135.789062 -10.347656 128.191406 -4.707031 118.421875 -0.65625 C 108.648438 3.394531 97.253906 5.421875 84.234375 5.421875 Z M 84.234375 5.421875 "/></g></g></g><g fill="#000000" fill-opacity="1"><g transform="translate(448.704447, 164.009013)"><g><path d="M 63.828125 0 L 63.828125 -136.984375 L 1.734375 -136.984375 L 1.734375 -153.046875 L 143.9375 -153.046875 L 143.9375 -136.984375 L 81.84375 -136.984375 L 81.84375 0 Z M 63.828125 0 "/></g></g></g><g fill="#000000" fill-opacity="1"><g transform="translate(0.290338, 345.274715)"><g><path d="M 151.96875 4.125 C 143.132812 4.125 135.96875 1.8125 130.46875 -2.8125 C 124.96875 -7.445312 120.769531 -13.09375 117.875 -19.75 L 109.203125 -41.03125 C 107.171875 -45.945312 104.273438 -49.851562 100.515625 -52.75 C 96.753906 -55.644531 92.410156 -57.09375 87.484375 -57.09375 L 51.890625 -57.09375 L 51.890625 0 L 11.5 0 L 11.5 -154.578125 L 112.015625 -154.578125 C 130.835938 -154.578125 145.640625 -150.34375 156.421875 -141.875 C 167.203125 -133.40625 172.59375 -121.789062 172.59375 -107.03125 C 172.59375 -96.03125 168.972656 -86.726562 161.734375 -79.125 C 154.492188 -71.53125 144.4375 -66.503906 131.5625 -64.046875 L 131.5625 -63.828125 C 135.175781 -62.378906 138.175781 -60.207031 140.5625 -57.3125 C 142.957031 -54.414062 144.945312 -51.015625 146.53125 -47.109375 L 154.359375 -28.65625 C 155.515625 -26.34375 156.882812 -24.390625 158.46875 -22.796875 C 160.0625 -21.203125 162.234375 -20.40625 164.984375 -20.40625 C 167.015625 -20.40625 169.078125 -20.984375 171.171875 -22.140625 C 173.273438 -23.296875 175.050781 -24.816406 176.5 -26.703125 L 184.96875 -8.6875 C 181.195312 -4.925781 176.34375 -1.851562 170.40625 0.53125 C 164.476562 2.925781 158.332031 4.125 151.96875 4.125 Z M 51.890625 -82.9375 L 103.546875 -82.9375 C 112.378906 -82.9375 119.363281 -84.925781 124.5 -88.90625 C 129.632812 -92.882812 132.203125 -98.203125 132.203125 -104.859375 C 132.203125 -111.660156 129.632812 -117.085938 124.5 -121.140625 C 119.363281 -125.191406 112.378906 -127.21875 103.546875 -127.21875 L 51.890625 -127.21875 Z M 51.890625 -82.9375 "/></g></g></g><g fill="#000000" fill-opacity="1"><g transform="translate(181.956909, 345.274715)"><g><path d="M 11.5 0 L 11.5 -154.578125 L 145.015625 -154.578125 L 145.015625 -125.484375 L 50.578125 -125.484375 L 50.578125 -92.046875 L 136.328125 -92.046875 L 136.328125 -66.21875 L 50.578125 -66.21875 L 50.578125 -29.09375 L 147.1875 -29.09375 L 147.1875 0 Z M 11.5 0 "/></g></g></g><g fill="#000000" fill-opacity="1"><g transform="translate(329.981255, 345.274715)"><g><path d="M 87.921875 5.203125 C 74.898438 5.203125 62.707031 3.46875 51.34375 0 C 39.976562 -3.46875 30.242188 -8.421875 22.140625 -14.859375 C 14.035156 -21.304688 8.175781 -29.015625 4.5625 -37.984375 L 30.390625 -54.0625 C 33.285156 -47.976562 37.695312 -42.617188 43.625 -37.984375 C 49.5625 -33.359375 56.546875 -29.742188 64.578125 -27.140625 C 72.617188 -24.535156 81.050781 -23.234375 89.875 -23.234375 C 101.019531 -23.234375 109.847656 -25.078125 116.359375 -28.765625 C 122.867188 -32.453125 126.125 -37.191406 126.125 -42.984375 C 126.125 -47.617188 123.59375 -51.414062 118.53125 -54.375 C 113.46875 -57.34375 105.363281 -59.695312 94.21875 -61.4375 L 67.078125 -65.78125 C 47.398438 -68.675781 33.070312 -73.628906 24.09375 -80.640625 C 15.125 -87.660156 10.640625 -97.394531 10.640625 -109.84375 C 10.640625 -120.269531 13.75 -129.207031 19.96875 -136.65625 C 26.195312 -144.113281 34.8125 -149.832031 45.8125 -153.8125 C 56.8125 -157.789062 69.472656 -159.78125 83.796875 -159.78125 C 94.648438 -159.78125 104.78125 -158.332031 114.1875 -155.4375 C 123.59375 -152.539062 131.804688 -148.523438 138.828125 -143.390625 C 145.847656 -138.253906 151.023438 -132.140625 154.359375 -125.046875 L 130.25 -108.765625 C 126.195312 -115.859375 119.9375 -121.503906 111.46875 -125.703125 C 103.007812 -129.898438 93.710938 -132 83.578125 -132 C 73.734375 -132 65.703125 -130.222656 59.484375 -126.671875 C 53.265625 -123.128906 50.15625 -118.609375 50.15625 -113.109375 C 50.007812 -108.765625 52.101562 -105.289062 56.4375 -102.6875 C 60.78125 -100.082031 67.800781 -98.054688 77.5 -96.609375 L 104.640625 -92.484375 C 125.765625 -89.585938 141.175781 -84.445312 150.875 -77.0625 C 160.570312 -69.6875 165.421875 -59.554688 165.421875 -46.671875 C 165.421875 -36.109375 162.164062 -26.953125 155.65625 -19.203125 C 149.144531 -11.460938 140.097656 -5.457031 128.515625 -1.1875 C 116.941406 3.070312 103.410156 5.203125 87.921875 5.203125 Z M 87.921875 5.203125 "/></g></g></g><g fill="#000000" fill-opacity="1"><g transform="translate(495.152303, 345.274715)"><g><path d="M 91.609375 5 C 74.679688 5 60.066406 2.25 47.765625 -3.25 C 35.460938 -8.75 26.015625 -16.742188 19.421875 -27.234375 C 12.835938 -37.734375 9.546875 -50.363281 9.546875 -65.125 L 9.546875 -154.578125 L 49.9375 -154.578125 L 49.9375 -66.640625 C 49.9375 -54.335938 53.695312 -44.710938 61.21875 -37.765625 C 68.75 -30.828125 78.878906 -27.359375 91.609375 -27.359375 C 104.347656 -27.359375 114.441406 -30.757812 121.890625 -37.5625 C 129.347656 -44.363281 133.078125 -54.054688 133.078125 -66.640625 L 133.078125 -154.578125 L 173.453125 -154.578125 L 173.453125 -65.125 C 173.453125 -50.363281 170.160156 -37.734375 163.578125 -27.234375 C 156.992188 -16.742188 147.585938 -8.75 135.359375 -3.25 C 123.128906 2.25 108.546875 5 91.609375 5 Z M 91.609375 5 "/></g></g></g><g fill="#000000" fill-opacity="1"><g transform="translate(674.214321, 345.274715)"><g><path d="M 11.5 0 L 11.5 -154.578125 L 51.890625 -154.578125 L 51.890625 -32.34375 L 132.203125 -32.34375 L 132.203125 0 Z M 11.5 0 "/></g></g></g><g fill="#000000" fill-opacity="1"><g transform="translate(805.526114, 345.274715)"><g><path d="M 57.96875 0 L 57.96875 -122.875 L 2.390625 -122.875 L 2.390625 -154.578125 L 153.921875 -154.578125 L 153.921875 -122.875 L 98.34375 -122.875 L 98.34375 0 Z M 57.96875 0 "/></g></g></g><g fill="#000000" fill-opacity="1"><g transform="translate(957.891441, 345.274715)"><g><path d="M 87.921875 5.203125 C 74.898438 5.203125 62.707031 3.46875 51.34375 0 C 39.976562 -3.46875 30.242188 -8.421875 22.140625 -14.859375 C 14.035156 -21.304688 8.175781 -29.015625 4.5625 -37.984375 L 30.390625 -54.0625 C 33.285156 -47.976562 37.695312 -42.617188 43.625 -37.984375 C 49.5625 -33.359375 56.546875 -29.742188 64.578125 -27.140625 C 72.617188 -24.535156 81.050781 -23.234375 89.875 -23.234375 C 101.019531 -23.234375 109.847656 -25.078125 116.359375 -28.765625 C 122.867188 -32.453125 126.125 -37.191406 126.125 -42.984375 C 126.125 -47.617188 123.59375 -51.414062 118.53125 -54.375 C 113.46875 -57.34375 105.363281 -59.695312 94.21875 -61.4375 L 67.078125 -65.78125 C 47.398438 -68.675781 33.070312 -73.628906 24.09375 -80.640625 C 15.125 -87.660156 10.640625 -97.394531 10.640625 -109.84375 C 10.640625 -120.269531 13.75 -129.207031 19.96875 -136.65625 C 26.195312 -144.113281 34.8125 -149.832031 45.8125 -153.8125 C 56.8125 -157.789062 69.472656 -159.78125 83.796875 -159.78125 C 94.648438 -159.78125 104.78125 -158.332031 114.1875 -155.4375 C 123.59375 -152.539062 131.804688 -148.523438 138.828125 -143.390625 C 145.847656 -138.253906 151.023438 -132.140625 154.359375 -125.046875 L 130.25 -108.765625 C 126.195312 -115.859375 119.9375 -121.503906 111.46875 -125.703125 C 103.007812 -129.898438 93.710938 -132 83.578125 -132 C 73.734375 -132 65.703125 -130.222656 59.484375 -126.671875 C 53.265625 -123.128906 50.15625 -118.609375 50.15625 -113.109375 C 50.007812 -108.765625 52.101562 -105.289062 56.4375 -102.6875 C 60.78125 -100.082031 67.800781 -98.054688 77.5 -96.609375 L 104.640625 -92.484375 C 125.765625 -89.585938 141.175781 -84.445312 150.875 -77.0625 C 160.570312 -69.6875 165.421875 -59.554688 165.421875 -46.671875 C 165.421875 -36.109375 162.164062 -26.953125 155.65625 -19.203125 C 149.144531 -11.460938 140.097656 -5.457031 128.515625 -1.1875 C 116.941406 3.070312 103.410156 5.203125 87.921875 5.203125 Z M 87.921875 5.203125 "/></g></g></g></g></g><g transform="matrix(1, 0, 0, 1, 26, 438)"><g clip-path="url(#8f68bcec33)"><g fill="#000000" fill-opacity="1"><g transform="translate(8.473428, 73.414459)"><g><path d="M 33.132812 0 L 33.132812 -22.957031 L 54.578125 -56.089844 L 40.953125 -56.089844 L 27.164062 -33.554688 L 13.203125 -56.089844 L -0.421875 -56.089844 L 21.191406 -22.957031 L 21.191406 0 Z M 33.132812 0 "/></g></g></g><g fill="#000000" fill-opacity="1"><g transform="translate(60.253198, 73.414459)"><g><path d="M 24.136719 1.007812 C 37.589844 1.007812 45.664062 -8.746094 45.664062 -20.351562 C 45.664062 -31.871094 37.589844 -41.628906 24.136719 -41.628906 C 10.765625 -41.628906 2.691406 -31.871094 2.691406 -20.351562 C 2.691406 -8.746094 10.765625 1.007812 24.136719 1.007812 Z M 24.136719 -8.492188 C 17.492188 -8.492188 13.792969 -13.960938 13.792969 -20.351562 C 13.792969 -26.65625 17.492188 -32.125 24.136719 -32.125 C 30.777344 -32.125 34.5625 -26.65625 34.5625 -20.351562 C 34.5625 -13.960938 30.777344 -8.492188 24.136719 -8.492188 Z M 24.136719 -8.492188 "/></g></g></g><g fill="#000000" fill-opacity="1"><g transform="translate(106.06469, 73.414459)"><g><path d="M 43.394531 0 L 43.394531 -40.617188 L 32.714844 -40.617188 L 32.714844 -13.117188 C 30.863281 -10.765625 27.582031 -8.492188 23.460938 -8.492188 C 18.921875 -8.492188 15.976562 -10.34375 15.976562 -15.976562 L 15.976562 -40.617188 L 5.296875 -40.617188 L 5.296875 -11.773438 C 5.296875 -3.867188 9.503906 1.007812 18.417969 1.007812 C 25.058594 1.007812 29.9375 -2.019531 32.714844 -5.128906 L 32.714844 0 Z M 43.394531 0 "/></g></g></g><g fill="#000000" fill-opacity="1"><g transform="translate(152.296491, 73.414459)"><g><path d="M 15.976562 0 L 15.976562 -26.828125 C 17.742188 -29.433594 22.453125 -31.367188 25.984375 -31.367188 C 27.164062 -31.367188 28.171875 -31.285156 28.929688 -31.113281 L 28.929688 -41.542969 C 23.882812 -41.542969 18.835938 -38.683594 15.976562 -35.066406 L 15.976562 -40.617188 L 5.296875 -40.617188 L 5.296875 0 Z M 15.976562 0 "/></g></g></g><g fill="#000000" fill-opacity="1"><g transform="translate(180.119021, 73.414459)"><g/></g></g><g fill="#000000" fill-opacity="1"><g transform="translate(199.199205, 73.414459)"><g><path d="M 17.492188 0 L 17.492188 -20.097656 L 31.789062 -20.097656 C 43.898438 -20.097656 50.625 -28.257812 50.625 -38.011719 C 50.625 -47.851562 43.980469 -56.089844 31.789062 -56.089844 L 5.550781 -56.089844 L 5.550781 0 Z M 38.429688 -38.09375 C 38.429688 -33.386719 34.898438 -30.359375 30.191406 -30.359375 L 17.492188 -30.359375 L 17.492188 -45.832031 L 30.191406 -45.832031 C 34.898438 -45.832031 38.429688 -42.71875 38.429688 -38.09375 Z M 38.429688 -38.09375 "/></g></g></g><g fill="#000000" fill-opacity="1"><g transform="translate(249.213696, 73.414459)"><g><path d="M 2.691406 -20.351562 C 2.691406 -7.316406 12.027344 1.007812 24.386719 1.007812 C 30.695312 1.007812 37 -0.839844 41.121094 -4.625 L 36.414062 -11.519531 C 33.804688 -9 29.347656 -7.484375 25.566406 -7.484375 C 18.667969 -7.484375 14.546875 -11.773438 13.875 -16.902344 L 44.066406 -16.902344 L 44.066406 -19.257812 C 44.066406 -32.542969 35.824219 -41.628906 23.714844 -41.628906 C 11.351562 -41.628906 2.691406 -32.125 2.691406 -20.351562 Z M 23.714844 -33.132812 C 30.777344 -33.132812 33.46875 -28.003906 33.722656 -24.136719 L 13.707031 -24.136719 C 14.210938 -28.171875 17.070312 -33.132812 23.714844 -33.132812 Z M 23.714844 -33.132812 "/></g></g></g><g fill="#000000" fill-opacity="1"><g transform="translate(293.25991, 73.414459)"><g><path d="M 24.136719 1.007812 C 37.589844 1.007812 45.664062 -8.746094 45.664062 -20.351562 C 45.664062 -31.871094 37.589844 -41.628906 24.136719 -41.628906 C 10.765625 -41.628906 2.691406 -31.871094 2.691406 -20.351562 C 2.691406 -8.746094 10.765625 1.007812 24.136719 1.007812 Z M 24.136719 -8.492188 C 17.492188 -8.492188 13.792969 -13.960938 13.792969 -20.351562 C 13.792969 -26.65625 17.492188 -32.125 24.136719 -32.125 C 30.777344 -32.125 34.5625 -26.65625 34.5625 -20.351562 C 34.5625 -13.960938 30.777344 -8.492188 24.136719 -8.492188 Z M 24.136719 -8.492188 "/></g></g></g><g fill="#000000" fill-opacity="1"><g transform="translate(339.071402, 73.414459)"><g><path d="M 15.976562 -5.214844 C 19.257812 -1.007812 23.714844 1.007812 28.507812 1.007812 C 38.9375 1.007812 46.503906 -6.8125 46.503906 -20.351562 C 46.503906 -33.890625 38.9375 -41.628906 28.507812 -41.628906 C 23.546875 -41.628906 19.089844 -39.441406 15.976562 -35.488281 L 15.976562 -40.617188 L 5.296875 -40.617188 L 5.296875 15.472656 L 15.976562 15.472656 Z M 35.402344 -20.351562 C 35.402344 -13.285156 31.285156 -8.492188 25.144531 -8.492188 C 21.695312 -8.492188 17.742188 -10.597656 15.976562 -13.117188 L 15.976562 -27.5 C 17.742188 -30.105469 21.695312 -32.125 25.144531 -32.125 C 31.285156 -32.125 35.402344 -27.332031 35.402344 -20.351562 Z M 35.402344 -20.351562 "/></g></g></g><g fill="#000000" fill-opacity="1"><g transform="translate(385.807556, 73.414459)"><g><path d="M 15.976562 0 L 15.976562 -56.089844 L 5.296875 -56.089844 L 5.296875 0 Z M 15.976562 0 "/></g></g></g><g fill="#000000" fill-opacity="1"><g transform="translate(404.63552, 73.414459)"><g><path d="M 2.691406 -20.351562 C 2.691406 -7.316406 12.027344 1.007812 24.386719 1.007812 C 30.695312 1.007812 37 -0.839844 41.121094 -4.625 L 36.414062 -11.519531 C 33.804688 -9 29.347656 -7.484375 25.566406 -7.484375 C 18.667969 -7.484375 14.546875 -11.773438 13.875 -16.902344 L 44.066406 -16.902344 L 44.066406 -19.257812 C 44.066406 -32.542969 35.824219 -41.628906 23.714844 -41.628906 C 11.351562 -41.628906 2.691406 -32.125 2.691406 -20.351562 Z M 23.714844 -33.132812 C 30.777344 -33.132812 33.46875 -28.003906 33.722656 -24.136719 L 13.707031 -24.136719 C 14.210938 -28.171875 17.070312 -33.132812 23.714844 -33.132812 Z M 23.714844 -33.132812 "/></g></g></g><g fill="#000000" fill-opacity="1"><g transform="translate(448.681734, 73.414459)"><g><path d="M 3.953125 -5.886719 C 3.953125 -2.1875 7.0625 0.925781 10.765625 0.925781 C 14.464844 0.925781 17.574219 -2.1875 17.574219 -5.886719 C 17.574219 -9.585938 14.464844 -12.699219 10.765625 -12.699219 C 7.0625 -12.699219 3.953125 -9.585938 3.953125 -5.886719 Z M 3.953125 -5.886719 "/></g></g></g><g fill="#000000" fill-opacity="1"><g transform="translate(467.761917, 73.414459)"><g/></g></g><g fill="#000000" fill-opacity="1"><g transform="translate(486.8421, 73.414459)"><g><path d="M 33.132812 0 L 33.132812 -22.957031 L 54.578125 -56.089844 L 40.953125 -56.089844 L 27.164062 -33.554688 L 13.203125 -56.089844 L -0.421875 -56.089844 L 21.191406 -22.957031 L 21.191406 0 Z M 33.132812 0 "/></g></g></g><g fill="#000000" fill-opacity="1"><g transform="translate(538.62187, 73.414459)"><g><path d="M 24.136719 1.007812 C 37.589844 1.007812 45.664062 -8.746094 45.664062 -20.351562 C 45.664062 -31.871094 37.589844 -41.628906 24.136719 -41.628906 C 10.765625 -41.628906 2.691406 -31.871094 2.691406 -20.351562 C 2.691406 -8.746094 10.765625 1.007812 24.136719 1.007812 Z M 24.136719 -8.492188 C 17.492188 -8.492188 13.792969 -13.960938 13.792969 -20.351562 C 13.792969 -26.65625 17.492188 -32.125 24.136719 -32.125 C 30.777344 -32.125 34.5625 -26.65625 34.5625 -20.351562 C 34.5625 -13.960938 30.777344 -8.492188 24.136719 -8.492188 Z M 24.136719 -8.492188 "/></g></g></g><g fill="#000000" fill-opacity="1"><g transform="translate(584.433362, 73.414459)"><g><path d="M 43.394531 0 L 43.394531 -40.617188 L 32.714844 -40.617188 L 32.714844 -13.117188 C 30.863281 -10.765625 27.582031 -8.492188 23.460938 -8.492188 C 18.921875 -8.492188 15.976562 -10.34375 15.976562 -15.976562 L 15.976562 -40.617188 L 5.296875 -40.617188 L 5.296875 -11.773438 C 5.296875 -3.867188 9.503906 1.007812 18.417969 1.007812 C 25.058594 1.007812 29.9375 -2.019531 32.714844 -5.128906 L 32.714844 0 Z M 43.394531 0 "/></g></g></g><g fill="#000000" fill-opacity="1"><g transform="translate(630.665163, 73.414459)"><g><path d="M 15.976562 0 L 15.976562 -26.828125 C 17.742188 -29.433594 22.453125 -31.367188 25.984375 -31.367188 C 27.164062 -31.367188 28.171875 -31.285156 28.929688 -31.113281 L 28.929688 -41.542969 C 23.882812 -41.542969 18.835938 -38.683594 15.976562 -35.066406 L 15.976562 -40.617188 L 5.296875 -40.617188 L 5.296875 0 Z M 15.976562 0 "/></g></g></g><g fill="#000000" fill-opacity="1"><g transform="translate(658.487693, 73.414459)"><g/></g></g><g fill="#000000" fill-opacity="1"><g transform="translate(677.567876, 73.414459)"><g><path d="M 2.859375 -28.003906 C 2.859375 -11.101562 15.222656 1.007812 32.125 1.007812 C 49.113281 1.007812 61.472656 -11.101562 61.472656 -28.003906 C 61.472656 -44.90625 49.113281 -57.015625 32.125 -57.015625 C 15.222656 -57.015625 2.859375 -44.90625 2.859375 -28.003906 Z M 49.195312 -28.003906 C 49.195312 -17.574219 42.46875 -9.585938 32.125 -9.585938 C 21.78125 -9.585938 15.136719 -17.574219 15.136719 -28.003906 C 15.136719 -38.515625 21.78125 -46.421875 32.125 -46.421875 C 42.46875 -46.421875 49.195312 -38.515625 49.195312 -28.003906 Z M 49.195312 -28.003906 "/></g></g></g><g fill="#000000" fill-opacity="1"><g transform="translate(739.434878, 73.414459)"><g><path d="M 15.976562 0 L 15.976562 -26.828125 C 17.742188 -29.433594 22.453125 -31.367188 25.984375 -31.367188 C 27.164062 -31.367188 28.171875 -31.285156 28.929688 -31.113281 L 28.929688 -41.542969 C 23.882812 -41.542969 18.835938 -38.683594 15.976562 -35.066406 L 15.976562 -40.617188 L 5.296875 -40.617188 L 5.296875 0 Z M 15.976562 0 "/></g></g></g><g fill="#000000" fill-opacity="1"><g transform="translate(767.257408, 73.414459)"><g><path d="M 4.457031 10.429688 C 9.503906 14.886719 14.96875 16.484375 21.949219 16.484375 C 31.957031 16.484375 43.898438 12.699219 43.898438 -2.773438 L 43.898438 -40.617188 L 33.132812 -40.617188 L 33.132812 -35.402344 C 29.855469 -39.523438 25.480469 -41.628906 20.601562 -41.628906 C 10.34375 -41.628906 2.691406 -34.226562 2.691406 -20.941406 C 2.691406 -7.398438 10.429688 -0.253906 20.601562 -0.253906 C 25.566406 -0.253906 29.9375 -2.605469 33.132812 -6.644531 L 33.132812 -2.523438 C 33.132812 5.464844 27.078125 7.738281 21.949219 7.738281 C 16.820312 7.738281 12.53125 6.308594 9.25 2.691406 Z M 33.132812 -14.378906 C 31.367188 -11.773438 27.5 -9.753906 23.96875 -9.753906 C 17.914062 -9.753906 13.707031 -13.960938 13.707031 -20.941406 C 13.707031 -27.917969 17.914062 -32.125 23.96875 -32.125 C 27.5 -32.125 31.367188 -30.191406 33.132812 -27.5 Z M 33.132812 -14.378906 "/></g></g></g><g fill="#000000" fill-opacity="1"><g transform="translate(813.993562, 73.414459)"><g><path d="M 40.367188 0 L 40.367188 -26.238281 C 40.367188 -37.925781 31.871094 -41.628906 22.621094 -41.628906 C 16.230469 -41.628906 9.839844 -39.609375 4.878906 -35.234375 L 8.914062 -28.085938 C 12.363281 -31.285156 16.398438 -32.882812 20.773438 -32.882812 C 26.152344 -32.882812 29.6875 -30.191406 29.6875 -26.070312 L 29.6875 -20.433594 C 26.996094 -23.714844 22.199219 -25.398438 16.820312 -25.398438 C 10.34375 -25.398438 2.691406 -21.949219 2.691406 -12.445312 C 2.691406 -3.363281 10.34375 1.007812 16.820312 1.007812 C 22.117188 1.007812 26.910156 -0.925781 29.6875 -4.203125 L 29.6875 0 Z M 29.6875 -9.753906 C 27.917969 -7.398438 24.554688 -6.222656 21.109375 -6.222656 C 16.902344 -6.222656 13.457031 -8.410156 13.457031 -12.195312 C 13.457031 -16.0625 16.902344 -18.332031 21.109375 -18.332031 C 24.554688 -18.332031 27.917969 -17.15625 29.6875 -14.800781 Z M 29.6875 -9.753906 "/></g></g></g><g fill="#000000" fill-opacity="1"><g transform="translate(857.19916, 73.414459)"><g><path d="M 43.394531 0 L 43.394531 -28.675781 C 43.394531 -36.582031 39.105469 -41.628906 30.191406 -41.628906 C 23.546875 -41.628906 18.585938 -38.429688 15.976562 -35.320312 L 15.976562 -40.617188 L 5.296875 -40.617188 L 5.296875 0 L 15.976562 0 L 15.976562 -27.332031 C 17.742188 -29.769531 21.023438 -32.125 25.230469 -32.125 C 29.769531 -32.125 32.714844 -30.191406 32.714844 -24.554688 L 32.714844 0 Z M 43.394531 0 "/></g></g></g><g fill="#000000" fill-opacity="1"><g transform="translate(903.43096, 73.414459)"><g><path d="M 10.597656 -46.589844 C 14.128906 -46.589844 16.988281 -49.449219 16.988281 -52.980469 C 16.988281 -56.511719 14.128906 -59.371094 10.597656 -59.371094 C 7.148438 -59.371094 4.203125 -56.511719 4.203125 -52.980469 C 4.203125 -49.449219 7.148438 -46.589844 10.597656 -46.589844 Z M 15.976562 0 L 15.976562 -40.617188 L 5.296875 -40.617188 L 5.296875 0 Z M 15.976562 0 "/></g></g></g><g fill="#000000" fill-opacity="1"><g transform="translate(922.258924, 73.414459)"><g><path d="M 36.664062 0 L 36.664062 -9.335938 L 17.742188 -9.335938 L 36.328125 -32.882812 L 36.328125 -40.617188 L 3.53125 -40.617188 L 3.53125 -31.285156 L 21.863281 -31.285156 L 3.53125 -7.988281 L 3.53125 0 Z M 36.664062 0 "/></g></g></g><g fill="#000000" fill-opacity="1"><g transform="translate(960.084642, 73.414459)"><g><path d="M 40.367188 0 L 40.367188 -26.238281 C 40.367188 -37.925781 31.871094 -41.628906 22.621094 -41.628906 C 16.230469 -41.628906 9.839844 -39.609375 4.878906 -35.234375 L 8.914062 -28.085938 C 12.363281 -31.285156 16.398438 -32.882812 20.773438 -32.882812 C 26.152344 -32.882812 29.6875 -30.191406 29.6875 -26.070312 L 29.6875 -20.433594 C 26.996094 -23.714844 22.199219 -25.398438 16.820312 -25.398438 C 10.34375 -25.398438 2.691406 -21.949219 2.691406 -12.445312 C 2.691406 -3.363281 10.34375 1.007812 16.820312 1.007812 C 22.117188 1.007812 26.910156 -0.925781 29.6875 -4.203125 L 29.6875 0 Z M 29.6875 -9.753906 C 27.917969 -7.398438 24.554688 -6.222656 21.109375 -6.222656 C 16.902344 -6.222656 13.457031 -8.410156 13.457031 -12.195312 C 13.457031 -16.0625 16.902344 -18.332031 21.109375 -18.332031 C 24.554688 -18.332031 27.917969 -17.15625 29.6875 -14.800781 Z M 29.6875 -9.753906 "/></g></g></g><g fill="#000000" fill-opacity="1"><g transform="translate(1003.29024, 73.414459)"><g><path d="M 18.921875 1.007812 C 23.378906 1.007812 26.238281 -0.167969 27.835938 -1.597656 L 25.566406 -9.671875 C 24.976562 -9.082031 23.460938 -8.492188 21.863281 -8.492188 C 19.511719 -8.492188 18.164062 -10.429688 18.164062 -12.949219 L 18.164062 -31.285156 L 26.40625 -31.285156 L 26.40625 -40.617188 L 18.164062 -40.617188 L 18.164062 -51.71875 L 7.398438 -51.71875 L 7.398438 -40.617188 L 0.671875 -40.617188 L 0.671875 -31.285156 L 7.398438 -31.285156 L 7.398438 -10.089844 C 7.398438 -2.859375 11.4375 1.007812 18.921875 1.007812 Z M 18.921875 1.007812 "/></g></g></g><g fill="#000000" fill-opacity="1"><g transform="translate(1029.263362, 73.414459)"><g><path d="M 10.597656 -46.589844 C 14.128906 -46.589844 16.988281 -49.449219 16.988281 -52.980469 C 16.988281 -56.511719 14.128906 -59.371094 10.597656 -59.371094 C 7.148438 -59.371094 4.203125 -56.511719 4.203125 -52.980469 C 4.203125 -49.449219 7.148438 -46.589844 10.597656 -46.589844 Z M 15.976562 0 L 15.976562 -40.617188 L 5.296875 -40.617188 L 5.296875 0 Z M 15.976562 0 "/></g></g></g><g fill="#000000" fill-opacity="1"><g transform="translate(1048.091326, 73.414459)"><g><path d="M 24.136719 1.007812 C 37.589844 1.007812 45.664062 -8.746094 45.664062 -20.351562 C 45.664062 -31.871094 37.589844 -41.628906 24.136719 -41.628906 C 10.765625 -41.628906 2.691406 -31.871094 2.691406 -20.351562 C 2.691406 -8.746094 10.765625 1.007812 24.136719 1.007812 Z M 24.136719 -8.492188 C 17.492188 -8.492188 13.792969 -13.960938 13.792969 -20.351562 C 13.792969 -26.65625 17.492188 -32.125 24.136719 -32.125 C 30.777344 -32.125 34.5625 -26.65625 34.5625 -20.351562 C 34.5625 -13.960938 30.777344 -8.492188 24.136719 -8.492188 Z M 24.136719 -8.492188 "/></g></g></g><g fill="#000000" fill-opacity="1"><g transform="translate(1093.902818, 73.414459)"><g><path d="M 43.394531 0 L 43.394531 -28.675781 C 43.394531 -36.582031 39.105469 -41.628906 30.191406 -41.628906 C 23.546875 -41.628906 18.585938 -38.429688 15.976562 -35.320312 L 15.976562 -40.617188 L 5.296875 -40.617188 L 5.296875 0 L 15.976562 0 L 15.976562 -27.332031 C 17.742188 -29.769531 21.023438 -32.125 25.230469 -32.125 C 29.769531 -32.125 32.714844 -30.191406 32.714844 -24.554688 L 32.714844 0 Z M 43.394531 0 "/></g></g></g><g fill="#000000" fill-opacity="1"><g transform="translate(1140.134619, 73.414459)"><g><path d="M 3.953125 -5.886719 C 3.953125 -2.1875 7.0625 0.925781 10.765625 0.925781 C 14.464844 0.925781 17.574219 -2.1875 17.574219 -5.886719 C 17.574219 -9.585938 14.464844 -12.699219 10.765625 -12.699219 C 7.0625 -12.699219 3.953125 -9.585938 3.953125 -5.886719 Z M 3.953125 -5.886719 "/></g></g></g></g></g></svg>