<svg xmlns="http://www.w3.org/2000/svg" xmlns:xlink="http://www.w3.org/1999/xlink" width="2000" zoomAndPan="magnify" viewBox="0 0 1500 599.999999" height="800" preserveAspectRatio="xMidYMid meet" version="1.0"><defs><g/><clipPath id="71bcc6d0ff"><path d="M 1170.578125 194.394531 L 1474.710938 194.394531 L 1474.710938 498.523438 L 1170.578125 498.523438 Z M 1170.578125 194.394531 " clip-rule="nonzero"/></clipPath><clipPath id="fd94a8c67a"><path d="M 1322.644531 194.394531 C 1238.660156 194.394531 1170.578125 262.476562 1170.578125 346.460938 C 1170.578125 430.441406 1238.660156 498.523438 1322.644531 498.523438 C 1406.628906 498.523438 1474.710938 430.441406 1474.710938 346.460938 C 1474.710938 262.476562 1406.628906 194.394531 1322.644531 194.394531 Z M 1322.644531 194.394531 " clip-rule="nonzero"/></clipPath><clipPath id="8750d96fe8"><path d="M 0.578125 0.394531 L 304.710938 0.394531 L 304.710938 304.523438 L 0.578125 304.523438 Z M 0.578125 0.394531 " clip-rule="nonzero"/></clipPath><clipPath id="bf8321eace"><path d="M 152.644531 0.394531 C 68.660156 0.394531 0.578125 68.476562 0.578125 152.460938 C 0.578125 236.441406 68.660156 304.523438 152.644531 304.523438 C 236.628906 304.523438 304.710938 236.441406 304.710938 152.460938 C 304.710938 68.476562 236.628906 0.394531 152.644531 0.394531 Z M 152.644531 0.394531 " clip-rule="nonzero"/></clipPath><clipPath id="dcd0ee43a9"><rect x="0" width="305" y="0" height="305"/></clipPath><clipPath id="9ffdd04631"><rect x="0" width="264" y="0" height="214"/></clipPath><clipPath id="226ba63d17"><rect x="0" width="1131" y="0" height="400"/></clipPath></defs><g clip-path="url(#71bcc6d0ff)"><g clip-path="url(#fd94a8c67a)"><g transform="matrix(1, 0, 0, 1, 1170, 194)"><g clip-path="url(#dcd0ee43a9)"><g clip-path="url(#8750d96fe8)"><g clip-path="url(#bf8321eace)"><path fill="#004aad" d="M 0.578125 0.394531 L 304.710938 0.394531 L 304.710938 304.523438 L 0.578125 304.523438 Z M 0.578125 0.394531 " fill-opacity="1" fill-rule="nonzero"/></g></g></g></g></g></g><g transform="matrix(1, 0, 0, 1, 1196, 263)"><g clip-path="url(#9ffdd04631)"><g fill="#ffffff" fill-opacity="1"><g transform="translate(1.522159, 158.457011)"><g><path d="M 0.859375 0 L 67.40625 -152.859375 L 115.078125 -152.859375 L 180.765625 0 L 139.125 0 L 126.875 -30.0625 L 54.53125 -30.0625 L 42.296875 0 Z M 62.6875 -56.03125 L 118.71875 -56.03125 L 91.25 -124.296875 L 90.8125 -124.296875 Z M 62.6875 -56.03125 "/></g></g></g><g fill="#ffffff" fill-opacity="1"><g transform="translate(189.100532, 158.457011)"><g><path d="M 11.375 0 L 11.375 -152.859375 L 51.09375 -152.859375 L 51.09375 0 Z M 11.375 0 "/></g></g></g></g></g><g transform="matrix(1, 0, 0, 1, 25, 79)"><g clip-path="url(#226ba63d17)"><g fill="#ffffff" fill-opacity="1"><g transform="translate(0.290338, 164.009013)"><g><path d="M 11.9375 0 L 11.9375 -153.046875 L 102.25 -153.046875 C 117.300781 -153.046875 129.203125 -149.351562 137.953125 -141.96875 C 146.710938 -134.59375 151.09375 -124.535156 151.09375 -111.796875 C 151.09375 -103.835938 148.882812 -96.925781 144.46875 -91.0625 C 140.0625 -85.207031 134.164062 -81.265625 126.78125 -79.234375 L 126.78125 -79.015625 C 135.757812 -77.140625 142.816406 -72.941406 147.953125 -66.421875 C 153.085938 -59.910156 155.65625 -52.023438 155.65625 -42.765625 C 155.65625 -29.742188 150.84375 -19.359375 141.21875 -11.609375 C 131.59375 -3.867188 118.601562 0 102.25 0 Z M 29.953125 -86.84375 L 100.296875 -86.84375 C 110.429688 -86.84375 118.425781 -89.082031 124.28125 -93.5625 C 130.144531 -98.050781 133.078125 -104.203125 133.078125 -112.015625 C 133.078125 -119.835938 130.144531 -125.988281 124.28125 -130.46875 C 118.425781 -134.957031 110.429688 -137.203125 100.296875 -137.203125 L 29.953125 -137.203125 Z M 29.953125 -15.84375 L 99.859375 -15.84375 C 111.441406 -15.84375 120.632812 -18.335938 127.4375 -23.328125 C 134.238281 -28.328125 137.640625 -35.171875 137.640625 -43.859375 C 137.640625 -52.242188 134.238281 -58.894531 127.4375 -63.8125 C 120.632812 -68.738281 111.441406 -71.203125 99.859375 -71.203125 L 29.953125 -71.203125 Z M 29.953125 -15.84375 "/></g></g></g><g fill="#ffffff" fill-opacity="1"><g transform="translate(157.430705, 164.009013)"><g><path d="M 11.9375 0 L 11.9375 -153.046875 L 138.28125 -153.046875 L 138.28125 -136.984375 L 29.53125 -136.984375 L 29.53125 -86.84375 L 129.609375 -86.84375 L 129.609375 -71.203125 L 29.53125 -71.203125 L 29.53125 -16.0625 L 140.453125 -16.0625 L 140.453125 0 Z M 11.9375 0 "/></g></g></g><g fill="#ffffff" fill-opacity="1"><g transform="translate(298.943673, 164.009013)"><g><path d="M 84.234375 5.421875 C 70.773438 5.421875 58.472656 3.214844 47.328125 -1.1875 C 36.179688 -5.601562 26.878906 -11.644531 19.421875 -19.3125 C 11.972656 -26.988281 6.945312 -35.820312 4.34375 -45.8125 L 20.84375 -52.53125 C 22.4375 -44.425781 26.234375 -37.191406 32.234375 -30.828125 C 38.242188 -24.460938 45.769531 -19.503906 54.8125 -15.953125 C 63.863281 -12.410156 73.816406 -10.640625 84.671875 -10.640625 C 94.222656 -10.640625 102.46875 -11.941406 109.40625 -14.546875 C 116.351562 -17.148438 121.742188 -20.691406 125.578125 -25.171875 C 129.421875 -29.660156 131.34375 -34.726562 131.34375 -40.375 C 131.34375 -47.175781 128.300781 -52.710938 122.21875 -56.984375 C 116.144531 -61.253906 106.234375 -64.617188 92.484375 -67.078125 L 60.140625 -73.15625 C 44.359375 -76.050781 32.773438 -80.644531 25.390625 -86.9375 C 18.015625 -93.238281 14.328125 -101.671875 14.328125 -112.234375 C 14.328125 -121.492188 16.859375 -129.597656 21.921875 -136.546875 C 26.992188 -143.492188 34.015625 -148.882812 42.984375 -152.71875 C 51.953125 -156.5625 62.226562 -158.484375 73.8125 -158.484375 C 84.375 -158.484375 94.03125 -156.816406 102.78125 -153.484375 C 111.539062 -150.148438 118.992188 -145.550781 125.140625 -139.6875 C 131.296875 -133.832031 135.675781 -127 138.28125 -119.1875 L 122.875 -111.796875 C 119.976562 -120.773438 114.113281 -128.117188 105.28125 -133.828125 C 96.457031 -139.546875 86.039062 -142.40625 74.03125 -142.40625 C 61.726562 -142.40625 51.738281 -139.765625 44.0625 -134.484375 C 36.394531 -129.203125 32.5625 -122.507812 32.5625 -114.40625 C 32.5625 -108.039062 35.09375 -102.9375 40.15625 -99.09375 C 45.226562 -95.257812 53.40625 -92.332031 64.6875 -90.3125 L 96.609375 -84.453125 C 114.703125 -81.265625 128.015625 -76.234375 136.546875 -69.359375 C 145.085938 -62.484375 149.359375 -53.546875 149.359375 -42.546875 C 149.359375 -33.140625 146.644531 -24.816406 141.21875 -17.578125 C 135.789062 -10.347656 128.191406 -4.707031 118.421875 -0.65625 C 108.648438 3.394531 97.253906 5.421875 84.234375 5.421875 Z M 84.234375 5.421875 "/></g></g></g><g fill="#ffffff" fill-opacity="1"><g transform="translate(448.704447, 164.009013)"><g><path d="M 63.828125 0 L 63.828125 -136.984375 L 1.734375 -136.984375 L 1.734375 -153.046875 L 143.9375 -153.046875 L 143.9375 -136.984375 L 81.84375 -136.984375 L 81.84375 0 Z M 63.828125 0 "/></g></g></g><g fill="#ffffff" fill-opacity="1"><g transform="translate(0.290338, 345.274715)"><g><path d="M 151.96875 4.125 C 143.132812 4.125 135.96875 1.808594 130.46875 -2.8125 C 124.96875 -7.445312 120.769531 -13.09375 117.875 -19.75 L 109.203125 -41.03125 C 107.171875 -45.945312 104.273438 -49.851562 100.515625 -52.75 C 96.753906 -55.644531 92.410156 -57.09375 87.484375 -57.09375 L 51.890625 -57.09375 L 51.890625 0 L 11.5 0 L 11.5 -154.578125 L 112.015625 -154.578125 C 130.835938 -154.578125 145.640625 -150.34375 156.421875 -141.875 C 167.203125 -133.40625 172.59375 -121.789062 172.59375 -107.03125 C 172.59375 -96.03125 168.972656 -86.726562 161.734375 -79.125 C 154.492188 -71.53125 144.4375 -66.503906 131.5625 -64.046875 L 131.5625 -63.828125 C 135.175781 -62.378906 138.175781 -60.207031 140.5625 -57.3125 C 142.957031 -54.414062 144.945312 -51.015625 146.53125 -47.109375 L 154.359375 -28.65625 C 155.515625 -26.34375 156.882812 -24.390625 158.46875 -22.796875 C 160.0625 -21.203125 162.234375 -20.40625 164.984375 -20.40625 C 167.015625 -20.40625 169.078125 -20.984375 171.171875 -22.140625 C 173.273438 -23.296875 175.050781 -24.816406 176.5 -26.703125 L 184.96875 -8.6875 C 181.195312 -4.925781 176.34375 -1.851562 170.40625 0.53125 C 164.476562 2.925781 158.332031 4.125 151.96875 4.125 Z M 51.890625 -82.9375 L 103.546875 -82.9375 C 112.378906 -82.9375 119.363281 -84.925781 124.5 -88.90625 C 129.632812 -92.882812 132.203125 -98.203125 132.203125 -104.859375 C 132.203125 -111.660156 129.632812 -117.085938 124.5 -121.140625 C 119.363281 -125.191406 112.378906 -127.21875 103.546875 -127.21875 L 51.890625 -127.21875 Z M 51.890625 -82.9375 "/></g></g></g><g fill="#ffffff" fill-opacity="1"><g transform="translate(181.956909, 345.274715)"><g><path d="M 11.5 0 L 11.5 -154.578125 L 145.015625 -154.578125 L 145.015625 -125.484375 L 50.578125 -125.484375 L 50.578125 -92.046875 L 136.328125 -92.046875 L 136.328125 -66.21875 L 50.578125 -66.21875 L 50.578125 -29.09375 L 147.1875 -29.09375 L 147.1875 0 Z M 11.5 0 "/></g></g></g><g fill="#ffffff" fill-opacity="1"><g transform="translate(329.981255, 345.274715)"><g><path d="M 87.921875 5.203125 C 74.898438 5.203125 62.707031 3.46875 51.34375 0 C 39.976562 -3.46875 30.242188 -8.421875 22.140625 -14.859375 C 14.035156 -21.304688 8.175781 -29.015625 4.5625 -37.984375 L 30.390625 -54.0625 C 33.285156 -47.976562 37.695312 -42.617188 43.625 -37.984375 C 49.5625 -33.359375 56.546875 -29.742188 64.578125 -27.140625 C 72.617188 -24.535156 81.050781 -23.234375 89.875 -23.234375 C 101.019531 -23.234375 109.847656 -25.078125 116.359375 -28.765625 C 122.867188 -32.453125 126.125 -37.191406 126.125 -42.984375 C 126.125 -47.617188 123.59375 -51.414062 118.53125 -54.375 C 113.46875 -57.34375 105.363281 -59.695312 94.21875 -61.4375 L 67.078125 -65.78125 C 47.398438 -68.675781 33.070312 -73.628906 24.09375 -80.640625 C 15.125 -87.660156 10.640625 -97.394531 10.640625 -109.84375 C 10.640625 -120.269531 13.75 -129.207031 19.96875 -136.65625 C 26.195312 -144.113281 34.8125 -149.832031 45.8125 -153.8125 C 56.8125 -157.789062 69.472656 -159.78125 83.796875 -159.78125 C 94.648438 -159.78125 104.78125 -158.332031 114.1875 -155.4375 C 123.59375 -152.539062 131.804688 -148.523438 138.828125 -143.390625 C 145.847656 -138.253906 151.023438 -132.140625 154.359375 -125.046875 L 130.25 -108.765625 C 126.195312 -115.859375 119.9375 -121.503906 111.46875 -125.703125 C 103.007812 -129.898438 93.710938 -132 83.578125 -132 C 73.734375 -132 65.703125 -130.222656 59.484375 -126.671875 C 53.265625 -123.128906 50.15625 -118.609375 50.15625 -113.109375 C 50.007812 -108.765625 52.101562 -105.289062 56.4375 -102.6875 C 60.78125 -100.082031 67.800781 -98.054688 77.5 -96.609375 L 104.640625 -92.484375 C 125.765625 -89.585938 141.175781 -84.445312 150.875 -77.0625 C 160.570312 -69.6875 165.421875 -59.554688 165.421875 -46.671875 C 165.421875 -36.109375 162.164062 -26.953125 155.65625 -19.203125 C 149.144531 -11.460938 140.097656 -5.457031 128.515625 -1.1875 C 116.941406 3.070312 103.410156 5.203125 87.921875 5.203125 Z M 87.921875 5.203125 "/></g></g></g><g fill="#ffffff" fill-opacity="1"><g transform="translate(495.152303, 345.274715)"><g><path d="M 91.609375 5 C 74.679688 5 60.066406 2.246094 47.765625 -3.25 C 35.460938 -8.75 26.015625 -16.742188 19.421875 -27.234375 C 12.835938 -37.734375 9.546875 -50.363281 9.546875 -65.125 L 9.546875 -154.578125 L 49.9375 -154.578125 L 49.9375 -66.640625 C 49.9375 -54.335938 53.695312 -44.710938 61.21875 -37.765625 C 68.75 -30.828125 78.878906 -27.359375 91.609375 -27.359375 C 104.347656 -27.359375 114.441406 -30.757812 121.890625 -37.5625 C 129.347656 -44.363281 133.078125 -54.054688 133.078125 -66.640625 L 133.078125 -154.578125 L 173.453125 -154.578125 L 173.453125 -65.125 C 173.453125 -50.363281 170.160156 -37.734375 163.578125 -27.234375 C 156.992188 -16.742188 147.585938 -8.75 135.359375 -3.25 C 123.128906 2.246094 108.546875 5 91.609375 5 Z M 91.609375 5 "/></g></g></g><g fill="#ffffff" fill-opacity="1"><g transform="translate(674.214321, 345.274715)"><g><path d="M 11.5 0 L 11.5 -154.578125 L 51.890625 -154.578125 L 51.890625 -32.34375 L 132.203125 -32.34375 L 132.203125 0 Z M 11.5 0 "/></g></g></g><g fill="#ffffff" fill-opacity="1"><g transform="translate(805.526114, 345.274715)"><g><path d="M 57.96875 0 L 57.96875 -122.875 L 2.390625 -122.875 L 2.390625 -154.578125 L 153.921875 -154.578125 L 153.921875 -122.875 L 98.34375 -122.875 L 98.34375 0 Z M 57.96875 0 "/></g></g></g><g fill="#ffffff" fill-opacity="1"><g transform="translate(957.891441, 345.274715)"><g><path d="M 87.921875 5.203125 C 74.898438 5.203125 62.707031 3.46875 51.34375 0 C 39.976562 -3.46875 30.242188 -8.421875 22.140625 -14.859375 C 14.035156 -21.304688 8.175781 -29.015625 4.5625 -37.984375 L 30.390625 -54.0625 C 33.285156 -47.976562 37.695312 -42.617188 43.625 -37.984375 C 49.5625 -33.359375 56.546875 -29.742188 64.578125 -27.140625 C 72.617188 -24.535156 81.050781 -23.234375 89.875 -23.234375 C 101.019531 -23.234375 109.847656 -25.078125 116.359375 -28.765625 C 122.867188 -32.453125 126.125 -37.191406 126.125 -42.984375 C 126.125 -47.617188 123.59375 -51.414062 118.53125 -54.375 C 113.46875 -57.34375 105.363281 -59.695312 94.21875 -61.4375 L 67.078125 -65.78125 C 47.398438 -68.675781 33.070312 -73.628906 24.09375 -80.640625 C 15.125 -87.660156 10.640625 -97.394531 10.640625 -109.84375 C 10.640625 -120.269531 13.75 -129.207031 19.96875 -136.65625 C 26.195312 -144.113281 34.8125 -149.832031 45.8125 -153.8125 C 56.8125 -157.789062 69.472656 -159.78125 83.796875 -159.78125 C 94.648438 -159.78125 104.78125 -158.332031 114.1875 -155.4375 C 123.59375 -152.539062 131.804688 -148.523438 138.828125 -143.390625 C 145.847656 -138.253906 151.023438 -132.140625 154.359375 -125.046875 L 130.25 -108.765625 C 126.195312 -115.859375 119.9375 -121.503906 111.46875 -125.703125 C 103.007812 -129.898438 93.710938 -132 83.578125 -132 C 73.734375 -132 65.703125 -130.222656 59.484375 -126.671875 C 53.265625 -123.128906 50.15625 -118.609375 50.15625 -113.109375 C 50.007812 -108.765625 52.101562 -105.289062 56.4375 -102.6875 C 60.78125 -100.082031 67.800781 -98.054688 77.5 -96.609375 L 104.640625 -92.484375 C 125.765625 -89.585938 141.175781 -84.445312 150.875 -77.0625 C 160.570312 -69.6875 165.421875 -59.554688 165.421875 -46.671875 C 165.421875 -36.109375 162.164062 -26.953125 155.65625 -19.203125 C 149.144531 -11.460938 140.097656 -5.457031 128.515625 -1.1875 C 116.941406 3.070312 103.410156 5.203125 87.921875 5.203125 Z M 87.921875 5.203125 "/></g></g></g></g></g><g fill="#ffffff" fill-opacity="1"><g transform="translate(34.183172, 519.15307)"><g><path d="M 33.140625 0 L 33.140625 -22.960938 L 54.589844 -56.101562 L 40.960938 -56.101562 L 27.167969 -33.5625 L 13.207031 -56.101562 L -0.421875 -56.101562 L 21.195312 -22.960938 L 21.195312 0 Z M 33.140625 0 "/></g></g></g><g fill="#ffffff" fill-opacity="1"><g transform="translate(85.991844, 519.15307)"><g><path d="M 24.140625 1.007812 C 37.597656 1.007812 45.671875 -8.746094 45.671875 -20.355469 C 45.671875 -31.878906 37.597656 -41.636719 24.140625 -41.636719 C 10.765625 -41.636719 2.691406 -31.878906 2.691406 -20.355469 C 2.691406 -8.746094 10.765625 1.007812 24.140625 1.007812 Z M 24.140625 -8.496094 C 17.496094 -8.496094 13.792969 -13.960938 13.792969 -20.355469 C 13.792969 -26.664062 17.496094 -32.132812 24.140625 -32.132812 C 30.785156 -32.132812 34.570312 -26.664062 34.570312 -20.355469 C 34.570312 -13.960938 30.785156 -8.496094 24.140625 -8.496094 Z M 24.140625 -8.496094 "/></g></g></g><g fill="#ffffff" fill-opacity="1"><g transform="translate(131.829034, 519.15307)"><g><path d="M 43.402344 0 L 43.402344 -40.625 L 32.71875 -40.625 L 32.71875 -13.121094 C 30.871094 -10.765625 27.589844 -8.496094 23.46875 -8.496094 C 18.925781 -8.496094 15.980469 -10.347656 15.980469 -15.980469 L 15.980469 -40.625 L 5.300781 -40.625 L 5.300781 -11.777344 C 5.300781 -3.871094 9.503906 1.007812 18.421875 1.007812 C 25.066406 1.007812 29.945312 -2.019531 32.71875 -5.132812 L 32.71875 0 Z M 43.402344 0 "/></g></g></g><g fill="#ffffff" fill-opacity="1"><g transform="translate(178.086749, 519.15307)"><g><path d="M 15.980469 0 L 15.980469 -26.832031 C 17.746094 -29.4375 22.457031 -31.375 25.992188 -31.375 C 27.167969 -31.375 28.175781 -31.289062 28.933594 -31.121094 L 28.933594 -41.550781 C 23.886719 -41.550781 18.839844 -38.691406 15.980469 -35.074219 L 15.980469 -40.625 L 5.300781 -40.625 L 5.300781 0 Z M 15.980469 0 "/></g></g></g><g fill="#ffffff" fill-opacity="1"><g transform="translate(205.92536, 519.15307)"><g/></g></g><g fill="#ffffff" fill-opacity="1"><g transform="translate(225.017, 519.15307)"><g><path d="M 17.496094 0 L 17.496094 -20.101562 L 31.792969 -20.101562 C 43.90625 -20.101562 50.636719 -28.261719 50.636719 -38.019531 C 50.636719 -47.859375 43.992188 -56.101562 31.792969 -56.101562 L 5.550781 -56.101562 L 5.550781 0 Z M 38.4375 -38.101562 C 38.4375 -33.394531 34.90625 -30.363281 30.195312 -30.363281 L 17.496094 -30.363281 L 17.496094 -45.839844 L 30.195312 -45.839844 C 34.90625 -45.839844 38.4375 -42.730469 38.4375 -38.101562 Z M 38.4375 -38.101562 "/></g></g></g><g fill="#ffffff" fill-opacity="1"><g transform="translate(275.059459, 519.15307)"><g><path d="M 2.691406 -20.355469 C 2.691406 -7.316406 12.027344 1.007812 24.394531 1.007812 C 30.699219 1.007812 37.007812 -0.839844 41.132812 -4.625 L 36.421875 -11.523438 C 33.8125 -9 29.355469 -7.484375 25.570312 -7.484375 C 18.671875 -7.484375 14.550781 -11.777344 13.878906 -16.90625 L 44.074219 -16.90625 L 44.074219 -19.261719 C 44.074219 -32.550781 35.832031 -41.636719 23.71875 -41.636719 C 11.355469 -41.636719 2.691406 -32.132812 2.691406 -20.355469 Z M 23.71875 -33.140625 C 30.785156 -33.140625 33.476562 -28.007812 33.730469 -24.140625 L 13.710938 -24.140625 C 14.214844 -28.175781 17.074219 -33.140625 23.71875 -33.140625 Z M 23.71875 -33.140625 "/></g></g></g><g fill="#ffffff" fill-opacity="1"><g transform="translate(319.130426, 519.15307)"><g><path d="M 24.140625 1.007812 C 37.597656 1.007812 45.671875 -8.746094 45.671875 -20.355469 C 45.671875 -31.878906 37.597656 -41.636719 24.140625 -41.636719 C 10.765625 -41.636719 2.691406 -31.878906 2.691406 -20.355469 C 2.691406 -8.746094 10.765625 1.007812 24.140625 1.007812 Z M 24.140625 -8.496094 C 17.496094 -8.496094 13.792969 -13.960938 13.792969 -20.355469 C 13.792969 -26.664062 17.496094 -32.132812 24.140625 -32.132812 C 30.785156 -32.132812 34.570312 -26.664062 34.570312 -20.355469 C 34.570312 -13.960938 30.785156 -8.496094 24.140625 -8.496094 Z M 24.140625 -8.496094 "/></g></g></g><g fill="#ffffff" fill-opacity="1"><g transform="translate(364.967629, 519.15307)"><g><path d="M 15.980469 -5.214844 C 19.261719 -1.007812 23.71875 1.007812 28.515625 1.007812 C 38.945312 1.007812 46.515625 -6.8125 46.515625 -20.355469 C 46.515625 -33.898438 38.945312 -41.636719 28.515625 -41.636719 C 23.550781 -41.636719 19.09375 -39.449219 15.980469 -35.496094 L 15.980469 -40.625 L 5.300781 -40.625 L 5.300781 15.476562 L 15.980469 15.476562 Z M 35.410156 -20.355469 C 35.410156 -13.289062 31.289062 -8.496094 25.148438 -8.496094 C 21.699219 -8.496094 17.746094 -10.597656 15.980469 -13.121094 L 15.980469 -27.503906 C 17.746094 -30.113281 21.699219 -32.132812 25.148438 -32.132812 C 31.289062 -32.132812 35.410156 -27.335938 35.410156 -20.355469 Z M 35.410156 -20.355469 "/></g></g></g><g fill="#ffffff" fill-opacity="1"><g transform="translate(411.729971, 519.15307)"><g><path d="M 15.980469 0 L 15.980469 -56.101562 L 5.300781 -56.101562 L 5.300781 0 Z M 15.980469 0 "/></g></g></g><g fill="#ffffff" fill-opacity="1"><g transform="translate(430.56928, 519.15307)"><g><path d="M 2.691406 -20.355469 C 2.691406 -7.316406 12.027344 1.007812 24.394531 1.007812 C 30.699219 1.007812 37.007812 -0.839844 41.132812 -4.625 L 36.421875 -11.523438 C 33.8125 -9 29.355469 -7.484375 25.570312 -7.484375 C 18.671875 -7.484375 14.550781 -11.777344 13.878906 -16.90625 L 44.074219 -16.90625 L 44.074219 -19.261719 C 44.074219 -32.550781 35.832031 -41.636719 23.71875 -41.636719 C 11.355469 -41.636719 2.691406 -32.132812 2.691406 -20.355469 Z M 23.71875 -33.140625 C 30.785156 -33.140625 33.476562 -28.007812 33.730469 -24.140625 L 13.710938 -24.140625 C 14.214844 -28.175781 17.074219 -33.140625 23.71875 -33.140625 Z M 23.71875 -33.140625 "/></g></g></g><g fill="#ffffff" fill-opacity="1"><g transform="translate(474.640247, 519.15307)"><g><path d="M 3.953125 -5.886719 C 3.953125 -2.1875 7.066406 0.925781 10.765625 0.925781 C 14.46875 0.925781 17.578125 -2.1875 17.578125 -5.886719 C 17.578125 -9.589844 14.46875 -12.699219 10.765625 -12.699219 C 7.066406 -12.699219 3.953125 -9.589844 3.953125 -5.886719 Z M 3.953125 -5.886719 "/></g></g></g><g fill="#ffffff" fill-opacity="1"><g transform="translate(493.731875, 519.15307)"><g/></g></g><g fill="#ffffff" fill-opacity="1"><g transform="translate(512.823503, 519.15307)"><g><path d="M 33.140625 0 L 33.140625 -22.960938 L 54.589844 -56.101562 L 40.960938 -56.101562 L 27.167969 -33.5625 L 13.207031 -56.101562 L -0.421875 -56.101562 L 21.195312 -22.960938 L 21.195312 0 Z M 33.140625 0 "/></g></g></g><g fill="#ffffff" fill-opacity="1"><g transform="translate(564.632186, 519.15307)"><g><path d="M 24.140625 1.007812 C 37.597656 1.007812 45.671875 -8.746094 45.671875 -20.355469 C 45.671875 -31.878906 37.597656 -41.636719 24.140625 -41.636719 C 10.765625 -41.636719 2.691406 -31.878906 2.691406 -20.355469 C 2.691406 -8.746094 10.765625 1.007812 24.140625 1.007812 Z M 24.140625 -8.496094 C 17.496094 -8.496094 13.792969 -13.960938 13.792969 -20.355469 C 13.792969 -26.664062 17.496094 -32.132812 24.140625 -32.132812 C 30.785156 -32.132812 34.570312 -26.664062 34.570312 -20.355469 C 34.570312 -13.960938 30.785156 -8.496094 24.140625 -8.496094 Z M 24.140625 -8.496094 "/></g></g></g><g fill="#ffffff" fill-opacity="1"><g transform="translate(610.469388, 519.15307)"><g><path d="M 43.402344 0 L 43.402344 -40.625 L 32.71875 -40.625 L 32.71875 -13.121094 C 30.871094 -10.765625 27.589844 -8.496094 23.46875 -8.496094 C 18.925781 -8.496094 15.980469 -10.347656 15.980469 -15.980469 L 15.980469 -40.625 L 5.300781 -40.625 L 5.300781 -11.777344 C 5.300781 -3.871094 9.503906 1.007812 18.421875 1.007812 C 25.066406 1.007812 29.945312 -2.019531 32.71875 -5.132812 L 32.71875 0 Z M 43.402344 0 "/></g></g></g><g fill="#ffffff" fill-opacity="1"><g transform="translate(656.727092, 519.15307)"><g><path d="M 15.980469 0 L 15.980469 -26.832031 C 17.746094 -29.4375 22.457031 -31.375 25.992188 -31.375 C 27.167969 -31.375 28.175781 -31.289062 28.933594 -31.121094 L 28.933594 -41.550781 C 23.886719 -41.550781 18.839844 -38.691406 15.980469 -35.074219 L 15.980469 -40.625 L 5.300781 -40.625 L 5.300781 0 Z M 15.980469 0 "/></g></g></g><g fill="#ffffff" fill-opacity="1"><g transform="translate(684.565713, 519.15307)"><g/></g></g><g fill="#ffffff" fill-opacity="1"><g transform="translate(703.657341, 519.15307)"><g><path d="M 2.859375 -28.007812 C 2.859375 -11.101562 15.222656 1.007812 32.132812 1.007812 C 49.121094 1.007812 61.484375 -11.101562 61.484375 -28.007812 C 61.484375 -44.917969 49.121094 -57.027344 32.132812 -57.027344 C 15.222656 -57.027344 2.859375 -44.917969 2.859375 -28.007812 Z M 49.207031 -28.007812 C 49.207031 -17.578125 42.476562 -9.589844 32.132812 -9.589844 C 21.785156 -9.589844 15.140625 -17.578125 15.140625 -28.007812 C 15.140625 -38.523438 21.785156 -46.429688 32.132812 -46.429688 C 42.476562 -46.429688 49.207031 -38.523438 49.207031 -28.007812 Z M 49.207031 -28.007812 "/></g></g></g><g fill="#ffffff" fill-opacity="1"><g transform="translate(765.55866, 519.15307)"><g><path d="M 15.980469 0 L 15.980469 -26.832031 C 17.746094 -29.4375 22.457031 -31.375 25.992188 -31.375 C 27.167969 -31.375 28.175781 -31.289062 28.933594 -31.121094 L 28.933594 -41.550781 C 23.886719 -41.550781 18.839844 -38.691406 15.980469 -35.074219 L 15.980469 -40.625 L 5.300781 -40.625 L 5.300781 0 Z M 15.980469 0 "/></g></g></g><g fill="#ffffff" fill-opacity="1"><g transform="translate(793.397282, 519.15307)"><g><path d="M 4.457031 10.429688 C 9.503906 14.886719 14.972656 16.484375 21.953125 16.484375 C 31.960938 16.484375 43.90625 12.699219 43.90625 -2.777344 L 43.90625 -40.625 L 33.140625 -40.625 L 33.140625 -35.410156 C 29.859375 -39.53125 25.484375 -41.636719 20.609375 -41.636719 C 10.347656 -41.636719 2.691406 -34.234375 2.691406 -20.945312 C 2.691406 -7.402344 10.429688 -0.253906 20.609375 -0.253906 C 25.570312 -0.253906 29.945312 -2.609375 33.140625 -6.644531 L 33.140625 -2.523438 C 33.140625 5.46875 27.085938 7.738281 21.953125 7.738281 C 16.824219 7.738281 12.53125 6.308594 9.253906 2.691406 Z M 33.140625 -14.382812 C 31.375 -11.777344 27.503906 -9.757812 23.972656 -9.757812 C 17.914062 -9.757812 13.710938 -13.960938 13.710938 -20.945312 C 13.710938 -27.925781 17.914062 -32.132812 23.972656 -32.132812 C 27.503906 -32.132812 31.375 -30.195312 33.140625 -27.503906 Z M 33.140625 -14.382812 "/></g></g></g><g fill="#ffffff" fill-opacity="1"><g transform="translate(840.15967, 519.15307)"><g><path d="M 40.375 0 L 40.375 -26.242188 C 40.375 -37.933594 31.878906 -41.636719 22.625 -41.636719 C 16.234375 -41.636719 9.839844 -39.617188 4.878906 -35.242188 L 8.914062 -28.09375 C 12.363281 -31.289062 16.402344 -32.886719 20.777344 -32.886719 C 26.160156 -32.886719 29.691406 -30.195312 29.691406 -26.074219 L 29.691406 -20.4375 C 27 -23.71875 22.207031 -25.402344 16.824219 -25.402344 C 10.347656 -25.402344 2.691406 -21.953125 2.691406 -12.449219 C 2.691406 -3.363281 10.347656 1.007812 16.824219 1.007812 C 22.121094 1.007812 26.914062 -0.925781 29.691406 -4.207031 L 29.691406 0 Z M 29.691406 -9.757812 C 27.925781 -7.402344 24.5625 -6.222656 21.113281 -6.222656 C 16.90625 -6.222656 13.457031 -8.410156 13.457031 -12.195312 C 13.457031 -16.066406 16.90625 -18.335938 21.113281 -18.335938 C 24.5625 -18.335938 27.925781 -17.160156 29.691406 -14.804688 Z M 29.691406 -9.757812 "/></g></g></g><g fill="#ffffff" fill-opacity="1"><g transform="translate(883.389588, 519.15307)"><g><path d="M 43.402344 0 L 43.402344 -28.683594 C 43.402344 -36.589844 39.113281 -41.636719 30.195312 -41.636719 C 23.550781 -41.636719 18.589844 -38.4375 15.980469 -35.328125 L 15.980469 -40.625 L 5.300781 -40.625 L 5.300781 0 L 15.980469 0 L 15.980469 -27.335938 C 17.746094 -29.777344 21.027344 -32.132812 25.234375 -32.132812 C 29.777344 -32.132812 32.71875 -30.195312 32.71875 -24.5625 L 32.71875 0 Z M 43.402344 0 "/></g></g></g><g fill="#ffffff" fill-opacity="1"><g transform="translate(929.647246, 519.15307)"><g><path d="M 10.597656 -46.597656 C 14.132812 -46.597656 16.992188 -49.457031 16.992188 -52.992188 C 16.992188 -56.523438 14.132812 -59.382812 10.597656 -59.382812 C 7.148438 -59.382812 4.207031 -56.523438 4.207031 -52.992188 C 4.207031 -49.457031 7.148438 -46.597656 10.597656 -46.597656 Z M 15.980469 0 L 15.980469 -40.625 L 5.300781 -40.625 L 5.300781 0 Z M 15.980469 0 "/></g></g></g><g fill="#ffffff" fill-opacity="1"><g transform="translate(948.486601, 519.15307)"><g><path d="M 36.671875 0 L 36.671875 -9.335938 L 17.746094 -9.335938 L 36.335938 -32.886719 L 36.335938 -40.625 L 3.53125 -40.625 L 3.53125 -31.289062 L 21.871094 -31.289062 L 3.53125 -7.992188 L 3.53125 0 Z M 36.671875 0 "/></g></g></g><g fill="#ffffff" fill-opacity="1"><g transform="translate(986.333768, 519.15307)"><g><path d="M 40.375 0 L 40.375 -26.242188 C 40.375 -37.933594 31.878906 -41.636719 22.625 -41.636719 C 16.234375 -41.636719 9.839844 -39.617188 4.878906 -35.242188 L 8.914062 -28.09375 C 12.363281 -31.289062 16.402344 -32.886719 20.777344 -32.886719 C 26.160156 -32.886719 29.691406 -30.195312 29.691406 -26.074219 L 29.691406 -20.4375 C 27 -23.71875 22.207031 -25.402344 16.824219 -25.402344 C 10.347656 -25.402344 2.691406 -21.953125 2.691406 -12.449219 C 2.691406 -3.363281 10.347656 1.007812 16.824219 1.007812 C 22.121094 1.007812 26.914062 -0.925781 29.691406 -4.207031 L 29.691406 0 Z M 29.691406 -9.757812 C 27.925781 -7.402344 24.5625 -6.222656 21.113281 -6.222656 C 16.90625 -6.222656 13.457031 -8.410156 13.457031 -12.195312 C 13.457031 -16.066406 16.90625 -18.335938 21.113281 -18.335938 C 24.5625 -18.335938 27.925781 -17.160156 29.691406 -14.804688 Z M 29.691406 -9.757812 "/></g></g></g><g fill="#ffffff" fill-opacity="1"><g transform="translate(1029.563686, 519.15307)"><g><path d="M 18.925781 1.007812 C 23.382812 1.007812 26.242188 -0.167969 27.839844 -1.597656 L 25.570312 -9.671875 C 24.980469 -9.085938 23.46875 -8.496094 21.871094 -8.496094 C 19.515625 -8.496094 18.167969 -10.429688 18.167969 -12.953125 L 18.167969 -31.289062 L 26.410156 -31.289062 L 26.410156 -40.625 L 18.167969 -40.625 L 18.167969 -51.730469 L 7.402344 -51.730469 L 7.402344 -40.625 L 0.671875 -40.625 L 0.671875 -31.289062 L 7.402344 -31.289062 L 7.402344 -10.09375 C 7.402344 -2.859375 11.4375 1.007812 18.925781 1.007812 Z M 18.925781 1.007812 "/></g></g></g><g fill="#ffffff" fill-opacity="1"><g transform="translate(1055.551935, 519.15307)"><g><path d="M 10.597656 -46.597656 C 14.132812 -46.597656 16.992188 -49.457031 16.992188 -52.992188 C 16.992188 -56.523438 14.132812 -59.382812 10.597656 -59.382812 C 7.148438 -59.382812 4.207031 -56.523438 4.207031 -52.992188 C 4.207031 -49.457031 7.148438 -46.597656 10.597656 -46.597656 Z M 15.980469 0 L 15.980469 -40.625 L 5.300781 -40.625 L 5.300781 0 Z M 15.980469 0 "/></g></g></g><g fill="#ffffff" fill-opacity="1"><g transform="translate(1074.39129, 519.15307)"><g><path d="M 24.140625 1.007812 C 37.597656 1.007812 45.671875 -8.746094 45.671875 -20.355469 C 45.671875 -31.878906 37.597656 -41.636719 24.140625 -41.636719 C 10.765625 -41.636719 2.691406 -31.878906 2.691406 -20.355469 C 2.691406 -8.746094 10.765625 1.007812 24.140625 1.007812 Z M 24.140625 -8.496094 C 17.496094 -8.496094 13.792969 -13.960938 13.792969 -20.355469 C 13.792969 -26.664062 17.496094 -32.132812 24.140625 -32.132812 C 30.785156 -32.132812 34.570312 -26.664062 34.570312 -20.355469 C 34.570312 -13.960938 30.785156 -8.496094 24.140625 -8.496094 Z M 24.140625 -8.496094 "/></g></g></g><g fill="#ffffff" fill-opacity="1"><g transform="translate(1120.228447, 519.15307)"><g><path d="M 43.402344 0 L 43.402344 -28.683594 C 43.402344 -36.589844 39.113281 -41.636719 30.195312 -41.636719 C 23.550781 -41.636719 18.589844 -38.4375 15.980469 -35.328125 L 15.980469 -40.625 L 5.300781 -40.625 L 5.300781 0 L 15.980469 0 L 15.980469 -27.335938 C 17.746094 -29.777344 21.027344 -32.132812 25.234375 -32.132812 C 29.777344 -32.132812 32.71875 -30.195312 32.71875 -24.5625 L 32.71875 0 Z M 43.402344 0 "/></g></g></g><g fill="#ffffff" fill-opacity="1"><g transform="translate(1166.486196, 519.15307)"><g><path d="M 3.953125 -5.886719 C 3.953125 -2.1875 7.066406 0.925781 10.765625 0.925781 C 14.46875 0.925781 17.578125 -2.1875 17.578125 -5.886719 C 17.578125 -9.589844 14.46875 -12.699219 10.765625 -12.699219 C 7.066406 -12.699219 3.953125 -9.589844 3.953125 -5.886719 Z M 3.953125 -5.886719 "/></g></g></g></svg>