<svg xmlns="http://www.w3.org/2000/svg" xmlns:xlink="http://www.w3.org/1999/xlink" width="500" zoomAndPan="magnify" viewBox="0 0 375 374.999991" height="500" preserveAspectRatio="xMidYMid meet" version="1.0"><defs><g/><clipPath id="96b81be7d6"><path d="M 0 0 L 375 0 L 375 375 L 0 375 Z M 0 0 " clip-rule="nonzero"/></clipPath><clipPath id="047dcbafba"><path d="M 187.5 0 C 83.945312 0 0 83.945312 0 187.5 C 0 291.054688 83.945312 375 187.5 375 C 291.054688 375 375 291.054688 375 187.5 C 375 83.945312 291.054688 0 187.5 0 Z M 187.5 0 " clip-rule="nonzero"/></clipPath><clipPath id="097bf1347e"><path d="M 0 0 L 375 0 L 375 375 L 0 375 Z M 0 0 " clip-rule="nonzero"/></clipPath><clipPath id="c4163ed538"><path d="M 187.5 0 C 83.945312 0 0 83.945312 0 187.5 C 0 291.054688 83.945312 375 187.5 375 C 291.054688 375 375 291.054688 375 187.5 C 375 83.945312 291.054688 0 187.5 0 Z M 187.5 0 " clip-rule="nonzero"/></clipPath><clipPath id="f7dfe727ae"><rect x="0" width="375" y="0" height="375"/></clipPath><clipPath id="111410b1fc"><rect x="0" width="324" y="0" height="264"/></clipPath><clipPath id="28a7f7160f"><rect x="0" width="375" y="0" height="375"/></clipPath></defs><g transform="matrix(1, 0, 0, 1, 0, 0)"><g clip-path="url(#28a7f7160f)"><g clip-path="url(#96b81be7d6)"><g clip-path="url(#047dcbafba)"><g transform="matrix(1, 0, 0, 1, 0, 0)"><g clip-path="url(#f7dfe727ae)"><g clip-path="url(#097bf1347e)"><g clip-path="url(#c4163ed538)"><rect x="-136.5" width="648" fill="#004aad" y="-136.499997" height="647.999984" fill-opacity="1"/></g></g></g></g></g></g><g transform="matrix(1, 0, 0, 1, 32, 84)"><g clip-path="url(#111410b1fc)"><g fill="#ffffff" fill-opacity="1"><g transform="translate(1.221139, 195.97419)"><g><path d="M 1.0625 0 L 83.125 -188.484375 L 141.890625 -188.484375 L 222.890625 0 L 171.53125 0 L 156.453125 -37.0625 L 67.234375 -37.0625 L 52.15625 0 Z M 77.296875 -69.09375 L 146.390625 -69.09375 L 112.5 -153.265625 L 111.96875 -153.265625 Z M 77.296875 -69.09375 "/></g></g></g><g fill="#ffffff" fill-opacity="1"><g transform="translate(232.509809, 195.97419)"><g><path d="M 14.03125 0 L 14.03125 -188.484375 L 63 -188.484375 L 63 0 Z M 14.03125 0 "/></g></g></g></g></g></g></g></svg>